<svg width="280" height="187" viewBox="0 0 280 187" fill="none" xmlns="http://www.w3.org/2000/svg">
<path d="M38.4531 133.821C38.5245 129.994 40.0007 126.327 42.6009 123.517C43.859 128.688 38.4531 133.821 38.4531 133.821Z" fill="#EBEBEB"/>
<path d="M44.4788 130.906C48.0166 129.444 51.9687 129.335 55.5817 130.599C51.3444 133.81 44.4788 130.906 44.4788 130.906Z" fill="#EBEBEB"/>
<path d="M45.1731 127.553C44.5944 124.591 45.126 121.52 46.6664 118.925C48.492 122.711 45.1731 127.553 45.1731 127.553Z" fill="#EBEBEB"/>
<path d="M21.8772 115.468C30.6804 117.813 35.4031 125.466 35.4031 125.466C27.8804 125.47 21.8772 115.468 21.8772 115.468Z" fill="#EBEBEB"/>
<path d="M35.9369 119.093C35.4814 109.607 44.755 98.8661 44.755 98.8661C43.355 110.63 35.9369 119.093 35.9369 119.093Z" fill="#EBEBEB"/>
<path d="M35.8921 92.0527C36.0778 96.8091 34.9226 101.522 32.5582 105.653C31.2478 99.5418 35.8921 92.0527 35.8921 92.0527Z" fill="#EBEBEB"/>
<path d="M32.3156 111.332C25.3791 110.585 21.6084 103.686 21.6084 103.686C29.9972 106.027 32.3156 111.332 32.3156 111.332Z" fill="#EBEBEB"/>
<path d="M17.356 140.34C20.6096 138.324 24.4912 137.576 28.261 138.238C24.5986 142.094 17.356 140.34 17.356 140.34Z" fill="#EBEBEB"/>
<path d="M35.3321 143.453C34.0143 147.078 30.6692 148.702 30.6692 148.702C30.9641 145.503 35.3321 143.453 35.3321 143.453Z" fill="#EBEBEB"/>
<path d="M34.4398 142.43C30.4937 144.861 26.1406 143.924 26.1406 143.924C28.8137 141.12 34.4398 142.43 34.4398 142.43Z" fill="#EBEBEB"/>
<path d="M37.9866 155.202C37.9866 155.202 37.9866 155.153 37.9866 155.06C37.9866 154.967 37.9866 154.814 37.9866 154.649C37.9866 154.257 37.9866 153.727 37.9866 153.059C37.9866 152.391 37.9866 151.525 37.9866 150.543C37.9866 149.561 37.9866 148.448 37.9157 147.213C37.856 144.749 37.6805 141.814 37.4304 138.563C37.1802 135.311 36.7546 131.749 36.2096 128.023C35.112 120.557 33.6149 113.911 32.4128 109.129C31.8042 106.736 31.2928 104.806 30.9194 103.477L30.505 101.939C30.464 101.778 30.4341 101.647 30.4042 101.539C30.3913 101.493 30.3838 101.445 30.3818 101.397C30.4043 101.439 30.423 101.483 30.4378 101.528L30.5648 101.924C30.6805 102.297 30.8373 102.801 31.0352 103.443C31.4458 104.761 31.9909 106.684 32.6256 109.073C34.2534 115.3 35.5396 121.611 36.4784 127.979C37.0197 131.712 37.408 135.281 37.673 138.54C37.9381 141.799 38.0464 144.737 38.0949 147.209C38.1322 148.445 38.121 149.561 38.121 150.543C38.121 151.525 38.121 152.368 38.08 153.059C38.0389 153.75 38.0389 154.261 38.024 154.649C38.024 154.814 38.024 154.952 38.024 155.064C38.0175 155.111 38.005 155.158 37.9866 155.202Z" fill="#E0E0E0"/>
<path d="M25.2521 135.121C25.3006 135.05 28.1044 136.886 31.5166 139.227C34.9289 141.568 37.6505 143.517 37.602 143.588C37.5534 143.659 34.7497 141.822 31.3374 139.481C27.9252 137.14 25.2036 135.191 25.2521 135.121Z" fill="#E0E0E0"/>
<path d="M37.6021 136.128C37.7254 135.955 37.8696 135.797 38.0314 135.658L39.2821 134.456L43.4485 130.547L47.6186 126.635L48.8842 125.451C49.029 125.295 49.1934 125.158 49.3733 125.044C49.2612 125.226 49.1256 125.391 48.9701 125.537C48.6975 125.843 48.2869 126.284 47.7754 126.795C46.7487 127.84 45.2965 129.248 43.6687 130.775C42.041 132.302 40.5365 133.653 39.4351 134.62C38.8863 135.102 38.4383 135.486 38.121 135.74C37.9674 135.894 37.7927 136.024 37.6021 136.128Z" fill="#E0E0E0"/>
<path d="M16.3481 130.622C16.3481 130.622 23.5161 130.487 26.5476 136.129C24.5359 136.069 22.5659 135.541 20.7949 134.585C19.024 133.628 17.5012 132.271 16.3481 130.622Z" fill="#EBEBEB"/>
<path d="M26.1332 127.747C26.1332 127.747 31.9721 131.91 31.0425 138.249C29.463 137.002 28.1967 135.403 27.3444 133.579C26.492 131.756 26.0773 129.759 26.1332 127.747Z" fill="#EBEBEB"/>
<path d="M56.8848 117.484C56.8848 117.484 54.5813 125.511 47.2603 126.952C48.0164 124.733 49.2803 122.722 50.9512 121.078C52.6222 119.435 54.654 118.204 56.8848 117.484Z" fill="#EBEBEB"/>
<path d="M22.9524 87.6511C22.9524 87.6511 32.0991 93.6245 31.0873 103.331C31.0873 103.324 23.2137 98.3397 22.9524 87.6511Z" fill="#EBEBEB"/>
<path d="M53.3867 140.72C53.2061 140.899 53.0072 141.058 52.7931 141.195C52.3973 141.482 51.8336 141.908 51.1541 142.449C49.3809 143.859 47.7265 145.412 46.2074 147.093C44.6905 148.784 43.3169 150.599 42.1008 152.518C41.6341 153.264 41.272 153.858 41.0293 154.28C40.9167 154.509 40.779 154.724 40.6187 154.922C40.6951 154.68 40.7965 154.446 40.9211 154.224C41.1301 153.783 41.4661 153.156 41.9104 152.402C43.0805 150.436 44.4383 148.588 45.9648 146.884C47.4925 145.182 49.1844 143.636 51.016 142.266C51.7178 141.743 52.304 141.34 52.7221 141.086C52.9294 140.94 53.1523 140.817 53.3867 140.72Z" fill="#E0E0E0"/>
<path d="M45.4344 146.679C44.7734 142.909 45.5215 139.028 47.5363 135.774C48.5331 142.572 45.4344 146.679 45.4344 146.679Z" fill="#EBEBEB"/>
<path d="M51.5908 143.323C54.0092 141.944 56.8506 141.504 59.5727 142.087C55.1562 144.428 51.5908 143.323 51.5908 143.323Z" fill="#EBEBEB"/>
<path d="M24.6509 155.949L28.0818 178.502H48.0178L52.6434 156.274L24.6509 155.949Z" fill="#EBEBEB"/>
<path d="M49.8587 170.4C49.8587 170.468 44.7478 170.52 38.4497 170.52C32.1515 170.52 27.0369 170.468 27.0369 170.4C27.0369 170.333 32.1478 170.285 38.4497 170.285C44.7515 170.285 49.8587 170.337 49.8587 170.4Z" fill="#FAFAFA"/>
<path d="M49.9331 169.292C49.9331 169.359 44.7923 169.411 38.4494 169.411C32.1064 169.411 26.9619 169.359 26.9619 169.292C26.9619 169.224 32.1027 169.176 38.4494 169.176C44.796 169.176 49.9331 169.228 49.9331 169.292Z" fill="#FAFAFA"/>
<path d="M49.8958 168.041C49.8958 168.104 44.7513 168.157 38.4084 168.157C32.0654 168.157 26.9209 168.104 26.9209 168.041C26.9209 167.978 32.0654 167.922 38.4084 167.922C44.7513 167.922 49.8958 167.974 49.8958 168.041Z" fill="#FAFAFA"/>
<path d="M30.3705 177.214C30.307 177.214 30.0345 175.952 29.7582 174.373C29.482 172.794 29.314 171.506 29.3849 171.494C29.4558 171.483 29.7246 172.756 29.9972 174.335C30.2697 175.915 30.434 177.203 30.3705 177.214Z" fill="#FAFAFA"/>
<path d="M31.7332 176.96C31.6697 176.96 31.5913 175.717 31.4868 174.19C31.3823 172.663 31.2927 171.416 31.3561 171.408C31.4196 171.401 31.6175 172.637 31.7295 174.171C31.8415 175.706 31.7892 176.96 31.7332 176.96Z" fill="#FAFAFA"/>
<path d="M34.1973 176.96C34.1375 176.96 33.865 175.706 33.6821 174.123C33.4991 172.54 33.4655 171.24 33.529 171.237C33.5925 171.233 33.7269 172.517 33.9023 174.093C34.0778 175.668 34.2645 176.96 34.1973 176.96Z" fill="#FAFAFA"/>
<path d="M35.9333 177.091C35.7448 176.14 35.6523 175.173 35.657 174.205C35.6047 172.603 35.6831 171.308 35.7466 171.308C35.8101 171.308 35.8399 172.603 35.8922 174.197C35.9445 175.791 36.0005 177.087 35.9333 177.091Z" fill="#FAFAFA"/>
<path d="M39.0056 176.96C38.9421 176.96 38.8488 175.735 38.7965 174.22C38.7443 172.704 38.7555 171.476 38.8189 171.472C38.8824 171.468 38.9795 172.696 39.0317 174.212C39.084 175.728 39.0691 176.96 39.0056 176.96Z" fill="#FAFAFA"/>
<path d="M41.2493 177.094C41.1858 177.094 41.141 175.825 41.156 174.257C41.1709 172.689 41.2306 171.427 41.2941 171.427C41.3576 171.427 41.4024 172.696 41.3912 174.261C41.38 175.825 41.3128 177.094 41.2493 177.094Z" fill="#FAFAFA"/>
<path d="M43.3512 176.792C43.2878 176.792 43.3512 175.459 43.523 173.831C43.6947 172.204 43.8627 170.886 43.9262 170.89C43.9897 170.893 43.9262 172.222 43.7544 173.854C43.5827 175.485 43.4184 176.799 43.3512 176.792Z" fill="#FAFAFA"/>
<path d="M46.0656 176.497C46.0021 176.497 46.0992 175.351 46.4016 173.977C46.5496 173.139 46.8004 172.323 47.1483 171.547C47.2155 171.565 46.9317 172.667 46.6368 174.026C46.3419 175.385 46.1328 176.505 46.0656 176.497Z" fill="#FAFAFA"/>
<path d="M22.3625 151.484V155.702C22.3625 156.143 22.5376 156.565 22.8491 156.877C23.1607 157.189 23.5833 157.364 24.0239 157.364H52.8937C53.3344 157.364 53.7569 157.189 54.0685 156.877C54.3801 156.565 54.5551 156.143 54.5551 155.702V151.484H22.3625Z" fill="#EBEBEB"/>
<path d="M24.864 157.364L25.1029 158.708L51.744 160.608L52.4198 157.364H24.864Z" fill="#E0E0E0"/>
<path d="M215.167 164.745V178.98H235.984H258.94V164.745H215.167Z" fill="#F5F5F5"/>
<path d="M213.33 160.765V164.745H260.471V160.765H235.984H213.33Z" fill="#E0E0E0"/>
<path d="M236.902 178.98H258.94V164.745H260.471V160.765H235.984V164.375L236.902 178.98Z" fill="#E0E0E0"/>
<path d="M230.167 167.041H221.29V169.183H230.167V167.041Z" fill="#E0E0E0"/>
<path d="M231.545 171.86H220.147V176.385H231.545V171.86Z" fill="white"/>
<path d="M221.902 146.548V160.783H242.719H265.675V146.548H221.902Z" fill="#F5F5F5"/>
<path d="M220.065 142.568V146.548H267.206V142.568H242.719H220.065Z" fill="#E0E0E0"/>
<path d="M243.637 160.783H265.675V146.548H267.206V142.568H242.719V146.182L243.637 160.783Z" fill="#E0E0E0"/>
<path d="M236.902 148.844H228.024V150.987H236.902V148.844Z" fill="#E0E0E0"/>
<path d="M238.28 153.668H226.882V158.192H238.28V153.668Z" fill="white"/>
<path d="M261.218 178.98C261.218 179.032 206.942 179.077 140.008 179.077C73.0726 179.077 18.7825 179.032 18.7825 178.98C18.7825 178.927 73.0465 178.883 140.008 178.883C206.969 178.883 261.218 178.924 261.218 178.98Z" fill="#263238"/>
<path d="M164.789 105.478H159.917V178.513H164.789V105.478Z" fill="#455A64"/>
<path d="M197.168 98.3696H77.9258V105.478H197.168V98.3696Z" fill="#455A64"/>
<path d="M106.919 105.478H102.047V178.513H106.919V105.478Z" fill="#455A64"/>
<path d="M166.637 105.314C166.637 105.37 146.873 105.411 122.498 105.411C98.1231 105.411 78.3513 105.37 78.3513 105.314C78.3513 105.258 98.1119 105.217 122.498 105.217C146.884 105.217 166.637 105.28 166.637 105.314Z" fill="#263238"/>
<path d="M119.967 80.4534C119.568 80.5496 119.201 80.7492 118.903 81.032C118.605 81.3149 118.387 81.6711 118.271 82.0649C118.154 82.4586 118.143 82.8761 118.239 83.2754C118.335 83.6747 118.534 84.0418 118.817 84.3398H113.732V89.9734C113.966 89.4956 114.354 89.111 114.834 88.8823C115.314 88.6536 115.857 88.5943 116.375 88.7141C116.893 88.8338 117.356 89.1256 117.686 89.5417C118.017 89.9579 118.198 90.4739 118.198 91.0056C118.198 91.5373 118.017 92.0533 117.686 92.4695C117.356 92.8857 116.893 93.1774 116.375 93.2972C115.857 93.4169 115.314 93.3576 114.834 93.1289C114.354 92.9002 113.966 92.5157 113.732 92.0379V98.3622H127.762V84.3398H122.237C122.585 83.9715 122.805 83.5001 122.863 82.9964C122.921 82.4927 122.814 81.9837 122.558 81.5459C122.303 81.1081 121.912 80.7649 121.445 80.5679C120.977 80.371 120.459 80.3308 119.967 80.4534Z" fill="#263238"/>
<path d="M118.126 90.4362C118.032 90.035 117.832 89.6664 117.547 89.3684C117.262 89.0704 116.903 88.8539 116.506 88.7413C116.114 88.6277 115.699 88.6183 115.303 88.7139C114.906 88.8094 114.541 89.0068 114.244 89.2864L114.191 84.3024H107.471C107.949 84.5357 108.334 84.9241 108.563 85.4041C108.791 85.8841 108.851 86.4274 108.731 86.9455C108.611 87.4635 108.319 87.9257 107.903 88.2566C107.487 88.5876 106.971 88.7677 106.439 88.7677C105.907 88.7677 105.391 88.5876 104.975 88.2566C104.559 87.9257 104.267 87.4635 104.148 86.9455C104.028 86.4274 104.087 85.8841 104.316 85.4041C104.545 84.9241 104.929 84.5357 105.407 84.3024H99.7285V98.3322H114.326L114.24 92.7061C114.674 93.114 115.249 93.3387 115.845 93.3333C116.2 93.333 116.55 93.2522 116.87 93.0971C117.189 92.942 117.469 92.7166 117.688 92.4377C117.908 92.1589 118.061 91.834 118.137 91.4873C118.213 91.1406 118.209 90.7813 118.126 90.4362Z" fill="#EDC90F"/>
<g opacity="0.3">
<path opacity="0.3" d="M99.6799 91.198C100.13 91.3212 100.603 91.3325 101.059 91.231C101.514 91.1295 101.938 90.9182 102.293 90.6156C102.644 90.3065 102.929 89.9295 103.13 89.5072C103.33 89.0849 103.443 88.6263 103.462 88.159C103.494 87.2185 103.222 86.2927 102.685 85.5196L104.432 84.2764H99.7285L99.6799 91.198Z" fill="black"/>
</g>
<path d="M234.935 47.4134L237.813 42.3622C236.045 39.4898 235.416 36.06 236.048 32.747C236.68 29.4339 238.529 26.4772 241.231 24.4579C243.932 22.4386 247.291 21.5029 250.648 21.8346C254.004 22.1662 257.116 23.7413 259.37 26.2503C261.624 28.7593 262.858 32.0206 262.83 35.3934C262.802 38.7661 261.513 42.0063 259.217 44.4771C256.921 46.9479 253.784 48.4706 250.422 48.7459C247.061 49.0212 243.717 48.0292 241.05 45.9648L234.935 47.4134Z" fill="white"/>
<path d="M234.935 47.4133L241.028 45.92L241.002 45.9946C240.997 45.9904 240.993 45.9853 240.99 45.9795C240.988 45.9737 240.986 45.9674 240.986 45.961C240.986 45.9547 240.988 45.9484 240.99 45.9426C240.993 45.9368 240.997 45.9316 241.002 45.9274C241.01 45.9201 241.02 45.916 241.031 45.916C241.042 45.916 241.053 45.9201 241.061 45.9274C242.941 47.3728 245.169 48.2962 247.52 48.6042C248.222 48.6973 248.93 48.7298 249.637 48.7013C250.01 48.6789 250.383 48.6714 250.757 48.6378L251.877 48.4624C255.235 47.7953 258.213 45.8743 260.206 43.0901C261.31 41.5513 262.073 39.795 262.446 37.9381C262.829 35.974 262.773 33.9494 262.282 32.0096C261.779 29.9825 260.8 28.1048 259.426 26.5328C258.033 24.9176 256.272 23.6603 254.292 22.8666C252.395 22.1155 250.354 21.7991 248.319 21.9408C246.393 22.0716 244.52 22.6234 242.831 23.5573C239.798 25.2437 237.527 28.0279 236.484 31.3376C236.065 32.7473 235.864 34.2127 235.887 35.6832C235.947 38.0357 236.625 40.3311 237.851 42.3397C237.855 42.3464 237.857 42.3542 237.857 42.3621C237.857 42.3701 237.855 42.3778 237.851 42.3845C235.984 45.5765 235.11 47.1221 234.946 47.4096C235.107 47.1221 235.973 45.5616 237.769 42.3397V42.3882C236.514 40.3658 235.817 38.0473 235.749 35.6682C235.717 34.1893 235.91 32.714 236.32 31.2928C237.366 27.9366 239.663 25.111 242.734 23.4005C244.444 22.4508 246.342 21.8887 248.293 21.7541C250.357 21.6074 252.428 21.9264 254.352 22.6874C256.358 23.4928 258.143 24.7665 259.556 26.4021C260.95 27.9982 261.944 29.904 262.453 31.961C262.949 33.9295 263.004 35.9833 262.614 37.9754C262.234 39.8607 261.455 41.6428 260.329 43.2021C258.306 46.0175 255.286 47.956 251.884 48.6229L250.742 48.7946C250.369 48.8245 249.995 48.832 249.622 48.8544C248.907 48.881 248.191 48.8448 247.483 48.7461C245.118 48.4235 242.882 47.4792 241.002 46.0096L241.069 45.9424C241.077 45.9514 241.082 45.9635 241.082 45.976C241.082 45.9885 241.077 46.0005 241.069 46.0096H241.05L234.935 47.4133Z" fill="#263238"/>
<path d="M251.253 33.8314H250.421L248.599 31.2927V29.6277C248.599 29.6277 247.311 29.5493 247.479 31.7295C247.647 33.9098 247.479 33.3535 247.479 33.3535C247.479 33.3535 244.742 33.3535 244.515 33.6037C244.35 33.7754 244.276 36.4933 244.246 37.9679C244.227 38.3225 244.327 38.6731 244.53 38.9644C244.733 39.2558 245.027 39.4713 245.366 39.577C245.462 39.6035 245.561 39.6173 245.661 39.6181C246.344 39.6181 249.831 39.0618 249.831 39.0618H251.253V33.8314Z" fill="#EDC90F"/>
<path d="M253.632 33.3722L253.12 39.0767H251.69V33.4879L253.632 33.3722Z" fill="#EDC90F"/>
<path d="M202.839 129.689V178.89H206.789V129.689H202.839Z" fill="#455A64"/>
<path d="M238.747 125.332H190.93V132.978H238.747V125.332Z" fill="#455A64"/>
<path d="M194.316 129.689V178.89H198.266V129.689H194.316Z" fill="#455A64"/>
<path d="M220.416 129.685V178.886H224.366V129.685H220.416Z" fill="#455A64"/>
<path d="M230.914 129.685V178.886H234.864V129.685H230.914Z" fill="#455A64"/>
<path d="M230.347 132.978C230.25 131.706 230.218 130.43 230.25 129.155C230.218 127.879 230.251 126.604 230.347 125.332C230.445 126.603 230.477 127.879 230.444 129.155C230.477 130.43 230.445 131.706 230.347 132.978Z" fill="#263238"/>
<path d="M238.355 132.978C238.355 133.034 227.741 133.075 214.644 133.075C201.548 133.075 190.93 133.034 190.93 132.978C190.93 132.922 201.548 132.88 214.644 132.88C227.741 132.88 238.355 132.925 238.355 132.978Z" fill="#263238"/>
<path d="M231.549 152.458H198.02V155.725H231.549V152.458Z" fill="#455A64"/>
<path d="M155.064 77.7802C154.69 77.9487 154.368 78.2121 154.128 78.5443C153.888 78.8764 153.739 79.2656 153.696 79.6732C153.654 80.0807 153.718 80.4923 153.884 80.867C154.05 81.2416 154.312 81.5663 154.642 81.8085L149.751 82.7717L149.83 83.1973L150.983 89.3946C151.127 88.8847 151.439 88.4384 151.868 88.1284C152.298 87.8184 152.82 87.663 153.349 87.6875C153.878 87.7119 154.383 87.9149 154.782 88.2632C155.181 88.6115 155.451 89.0847 155.546 89.6056C155.642 90.1266 155.559 90.6646 155.309 91.1321C155.06 91.5995 154.66 91.9689 154.175 92.1799C153.689 92.3909 153.146 92.4313 152.634 92.2943C152.122 92.1573 151.672 91.8511 151.357 91.4255L152.391 96.9882L166.186 94.4234L163.625 80.6399L163.52 80.0799L158.006 81.1999C158.281 80.7742 158.41 80.2708 158.375 79.7653C158.339 79.2598 158.141 78.7794 157.81 78.3959C157.479 78.0125 157.032 77.7467 156.537 77.6384C156.042 77.5301 155.525 77.5851 155.064 77.7951V77.7802Z" fill="#EDC90F"/>
<path d="M191.628 68.2303C191.438 68.4842 184.576 80.7295 184.576 80.7295L169.183 84.1343L170.441 91.1493C170.441 91.1493 187.413 89.3274 189.806 87.4458C192.199 85.5642 197.784 74.1215 197.784 74.1215L191.628 68.2303Z" fill="#936760"/>
<path d="M169.184 84.1344L164.487 84.6272C164.278 84.6496 159.951 87.0091 159.951 87.0091C159.951 87.0091 159.615 87.4683 161.026 87.416C162.206 87.3005 163.368 87.05 164.491 86.6693L165.88 92.7808L170.796 91.0933L171.58 85.4411L169.184 84.1344Z" fill="#936760"/>
<path d="M212.445 103.507C212.445 103.507 182.392 103.38 180.01 103.507C175.773 103.734 172.917 108.464 172.368 110.917C171.819 113.37 158.667 151.14 158.667 151.14L168.87 157.741L182.56 126.847L189.452 114.863L226.934 121.412L212.445 103.507Z" fill="#936760"/>
<path d="M189.28 113.755C189.28 113.755 183.732 113.755 180.734 118.194C178.976 120.807 179.592 125.466 179.558 128.983C179.51 133.777 180.757 170.949 180.757 170.949C184.292 173.462 188.242 173.749 192.558 172.069L195.612 130.921L194.824 124.783L215.324 125.235C215.324 125.235 218.975 118.403 213.901 112.982C213.229 112.28 189.28 113.755 189.28 113.755Z" fill="#936760"/>
<path d="M180.742 170.561V171.308C180.742 171.308 167.877 176.325 167.716 178.756L193.163 178.875L192.857 170.408C189.052 172.155 185.095 172.331 180.742 170.561Z" fill="#EDC90F"/>
<path d="M193.152 178.886L193.077 176.852L168.717 177.479C168.717 177.479 167.597 177.968 167.705 178.767L193.152 178.886Z" fill="#E0E0E0"/>
<path d="M159.159 149.568L158.872 150.267C158.872 150.267 145.059 150.188 144.021 152.387L167.627 161.881L170.464 153.899C166.301 154.112 162.553 152.816 159.159 149.568Z" fill="#EDC90F"/>
<path d="M167.627 161.881L168.31 159.962L145.432 151.573C145.432 151.573 144.2 151.607 144.021 152.395L167.627 161.881Z" fill="#E0E0E0"/>
<path d="M157.92 153.164C157.95 153.164 158.069 153.029 158.17 152.738C158.297 152.354 158.326 151.945 158.256 151.547C158.192 151.149 158.032 150.772 157.789 150.45C157.595 150.207 157.435 150.106 157.416 150.129C157.397 150.151 157.86 150.73 157.995 151.592C158.129 152.454 157.842 153.134 157.92 153.164Z" fill="#263238"/>
<path d="M159.268 153.395C159.327 153.429 159.641 152.697 159.492 151.76C159.342 150.823 158.786 150.241 158.745 150.293C158.704 150.345 159.088 150.946 159.23 151.809C159.372 152.671 159.186 153.373 159.268 153.395Z" fill="#263238"/>
<path d="M155.863 152.992C155.915 153.044 156.367 152.54 156.46 151.749C156.553 150.957 156.255 150.356 156.191 150.394C156.128 150.431 156.288 150.998 156.191 151.715C156.094 152.432 155.796 152.947 155.863 152.992Z" fill="#263238"/>
<path d="M157.27 150.33C157.27 150.36 157.625 150.181 157.972 149.699C158.17 149.417 158.337 149.114 158.469 148.796C158.543 148.62 158.618 148.422 158.693 148.236C158.737 148.131 158.77 148.022 158.793 147.911C158.808 147.837 158.805 147.761 158.784 147.688C158.764 147.616 158.728 147.549 158.678 147.493C158.619 147.433 158.541 147.395 158.458 147.385C158.375 147.375 158.29 147.393 158.218 147.437C158.11 147.498 158.015 147.582 157.942 147.683C157.817 147.849 157.709 148.028 157.621 148.217C157.47 148.532 157.374 148.87 157.337 149.218C157.276 149.534 157.311 149.862 157.438 150.158C157.483 150.158 157.438 149.785 157.528 149.247C157.589 148.928 157.695 148.618 157.845 148.329C157.932 148.158 158.036 147.997 158.155 147.847C158.263 147.694 158.435 147.605 158.484 147.683C158.532 147.762 158.521 147.948 158.442 148.146C158.364 148.344 158.304 148.519 158.233 148.699C158.119 149.008 157.978 149.307 157.812 149.591C157.524 150.08 157.24 150.296 157.27 150.33Z" fill="#263238"/>
<path d="M157.136 150.196C157.136 150.196 157.155 150.252 157.225 150.33L157.281 150.39V150.3C157.321 149.942 157.3 149.58 157.218 149.229C157.121 148.799 156.954 148.388 156.725 148.012C156.678 147.929 156.616 147.856 156.542 147.795C156.495 147.756 156.439 147.727 156.379 147.712C156.318 147.698 156.256 147.697 156.195 147.709C156.116 147.734 156.048 147.784 156.001 147.851C155.954 147.919 155.93 148 155.934 148.083C155.935 148.193 155.951 148.302 155.982 148.407C156.028 148.596 156.091 148.779 156.169 148.956C156.301 149.254 156.476 149.53 156.688 149.778C156.864 150.023 157.104 150.214 157.382 150.33C157.412 150.293 157.147 150.084 156.841 149.658C156.671 149.406 156.532 149.134 156.427 148.848C156.363 148.681 156.311 148.51 156.27 148.336C156.214 148.15 156.225 147.963 156.27 147.963C156.419 147.911 156.602 148.307 156.729 148.534C156.847 148.774 156.943 149.024 157.016 149.281C157.108 149.612 157.172 149.951 157.207 150.293L157.278 150.263C157.192 150.207 157.143 150.185 157.136 150.196Z" fill="#263238"/>
<path d="M180.958 174.216C180.992 174.216 181.018 174.022 180.958 173.723C180.865 173.33 180.677 172.966 180.41 172.663C180.146 172.357 179.811 172.12 179.435 171.972C179.144 171.864 178.95 171.864 178.946 171.898C178.942 171.931 179.637 172.178 180.204 172.842C180.772 173.507 180.88 174.231 180.958 174.216Z" fill="#263238"/>
<path d="M182.231 173.708C182.302 173.708 182.198 172.909 181.567 172.196C180.936 171.483 180.171 171.27 180.159 171.341C180.148 171.412 180.794 171.715 181.361 172.375C181.929 173.036 182.153 173.731 182.231 173.708Z" fill="#263238"/>
<path d="M179.122 175.146C179.193 175.146 179.312 174.496 178.98 173.772C178.647 173.047 178.073 172.693 178.039 172.756C178.005 172.82 178.438 173.223 178.73 173.876C179.021 174.529 179.039 175.142 179.122 175.146Z" fill="#263238"/>
<path d="M178.927 172.14C179.109 171.873 179.202 171.556 179.192 171.233C179.212 170.89 179.195 170.546 179.144 170.206C179.118 170.012 179.08 169.814 179.043 169.613C179.026 169.499 178.997 169.388 178.957 169.28C178.932 169.21 178.889 169.146 178.834 169.095C178.779 169.043 178.712 169.006 178.64 168.985C178.558 168.965 178.472 168.973 178.396 169.007C178.319 169.042 178.257 169.101 178.218 169.176C178.155 169.291 178.119 169.418 178.114 169.549C178.091 169.755 178.091 169.963 178.114 170.169C178.153 170.517 178.248 170.856 178.397 171.173C178.662 171.707 178.954 171.942 178.976 171.92C178.998 171.897 178.778 171.617 178.576 171.095C178.388 170.612 178.319 170.091 178.375 169.575C178.375 169.389 178.491 169.224 178.569 169.265C178.647 169.307 178.741 169.471 178.778 169.68C178.815 169.889 178.853 170.053 178.89 170.259C178.953 170.582 178.989 170.911 178.998 171.24C179.01 171.789 178.886 172.125 178.927 172.14Z" fill="#263238"/>
<path d="M178.741 172.107C178.741 172.107 178.786 172.144 178.89 172.174L178.969 172.196L178.931 172.11C178.778 171.785 178.571 171.489 178.319 171.233C178.123 171.03 177.907 170.849 177.673 170.692C177.54 170.605 177.403 170.526 177.262 170.453C177.178 170.406 177.085 170.376 176.99 170.363C176.929 170.355 176.868 170.36 176.81 170.379C176.751 170.398 176.698 170.429 176.654 170.471C176.601 170.532 176.568 170.607 176.562 170.687C176.555 170.767 176.574 170.847 176.617 170.916C176.677 171.009 176.749 171.094 176.829 171.17C176.968 171.307 177.117 171.432 177.277 171.543C177.544 171.728 177.838 171.873 178.147 171.972C178.425 172.089 178.731 172.125 179.028 172.077C179.028 172.032 178.7 171.995 178.214 171.789C177.934 171.671 177.668 171.519 177.423 171.338C177.28 171.23 177.145 171.111 177.02 170.983C176.874 170.856 176.788 170.692 176.844 170.669C176.945 170.546 177.307 170.785 177.531 170.916C177.757 171.055 177.97 171.215 178.166 171.394C178.418 171.629 178.65 171.885 178.86 172.159L178.901 172.095C178.797 172.077 178.745 172.08 178.741 172.107Z" fill="#263238"/>
<path d="M200.67 25.7189C200.985 24.7043 201.498 23.7623 202.18 22.9478C202.862 22.1332 203.699 21.4622 204.643 20.9738C206.718 19.9173 209.186 19.8277 211.456 20.3504C213.726 20.873 215.82 21.9632 217.803 23.1877C218.923 23.8746 220.02 24.625 220.789 25.6704C222.216 27.5781 223.597 30.6842 223.671 33.0661C223.731 34.9925 222.858 39.7861 221.995 41.5072C221.689 42.1232 220.969 42.6645 220.102 43.12C219.175 44.8256 217.951 46.3526 216.489 47.6298C216.078 46.3281 215.668 45.024 215.26 43.7173L200.67 25.7189Z" fill="#263238"/>
<path d="M201.846 23.3781L205.654 22.8069C203.444 27.6826 202.559 38.9498 201.227 44.1354C199.886 42.0709 196.818 35.8026 197.06 33.3498C197.303 30.897 197.355 22.8293 201.846 23.3781Z" fill="#263238"/>
<path d="M219.583 32.1066C219.555 30.721 219.083 29.381 218.237 28.2832C217.391 27.1854 216.216 26.3874 214.883 26.0063L206.218 23.5199C202.455 23.0047 199.804 27.5743 199.45 31.3599C199.054 35.5599 198.759 39.9914 199.162 43.1461C199.969 49.4927 204.762 50.441 204.762 50.441C204.762 50.441 204.68 53.4277 204.628 55.2943L206.08 63.5487L217.504 53.7973L219.621 32.1813C219.61 32.073 219.587 32.2485 219.583 32.1066Z" fill="#936760"/>
<path d="M200.547 36.1834C200.539 36.3928 200.612 36.5973 200.751 36.7539C200.89 36.9106 201.085 37.0071 201.294 37.0234C201.396 37.0347 201.5 37.0255 201.599 36.9961C201.698 36.9668 201.79 36.918 201.869 36.8526C201.949 36.7872 202.015 36.7065 202.063 36.6153C202.111 36.5241 202.14 36.4242 202.149 36.3215C202.158 36.1115 202.086 35.9061 201.946 35.7486C201.807 35.5912 201.612 35.4941 201.402 35.4778C201.299 35.4665 201.196 35.4759 201.096 35.5054C200.997 35.535 200.905 35.5841 200.826 35.6499C200.746 35.7157 200.68 35.7968 200.632 35.8885C200.585 35.9801 200.556 36.0804 200.547 36.1834Z" fill="#263238"/>
<path d="M200.327 33.8613C200.424 33.9696 201.051 33.5328 201.921 33.5626C202.791 33.5925 203.414 34.048 203.515 33.936C203.564 33.8912 203.467 33.697 203.194 33.4842C202.825 33.2136 202.382 33.0625 201.925 33.0512C201.47 33.0373 201.023 33.168 200.648 33.4245C200.375 33.6224 200.278 33.8128 200.327 33.8613Z" fill="#263238"/>
<path d="M208.174 36.2134C208.166 36.4228 208.239 36.6273 208.378 36.7839C208.518 36.9405 208.712 37.0371 208.921 37.0534C209.024 37.0647 209.128 37.0553 209.227 37.0258C209.327 36.9963 209.419 36.9472 209.499 36.8814C209.579 36.8157 209.645 36.7346 209.693 36.643C209.741 36.5513 209.771 36.4509 209.78 36.3478C209.788 36.1384 209.715 35.9339 209.576 35.7772C209.436 35.6206 209.242 35.524 209.033 35.5078C208.93 35.4959 208.826 35.5049 208.726 35.5342C208.627 35.5635 208.534 35.6126 208.454 35.6784C208.374 35.7443 208.308 35.8255 208.26 35.9174C208.212 36.0094 208.183 36.11 208.174 36.2134Z" fill="#263238"/>
<path d="M208.6 34.0964C208.697 34.2047 209.324 33.7716 210.194 33.7978C211.064 33.8239 211.687 34.2831 211.788 34.1711C211.837 34.1263 211.74 33.9322 211.467 33.7231C211.1 33.4485 210.656 33.2958 210.198 33.2863C209.743 33.2706 209.295 33.4015 208.921 33.6596C208.648 33.8612 208.551 34.0479 208.6 34.0964Z" fill="#263238"/>
<path d="M205.68 40.8613C205.226 40.7032 204.753 40.6028 204.273 40.5626C204.053 40.5328 203.844 40.4805 203.81 40.3274C203.798 40.0976 203.856 39.8694 203.978 39.6741L204.687 38.0016C205.677 35.616 206.397 33.656 206.304 33.6149C206.211 33.5738 205.326 35.4816 204.34 37.8597L203.657 39.5434C203.508 39.8074 203.458 40.1157 203.515 40.4133C203.546 40.4948 203.596 40.5678 203.661 40.6262C203.726 40.6846 203.804 40.7268 203.888 40.7493C204.009 40.7874 204.135 40.8087 204.262 40.8128C204.731 40.8869 205.207 40.9032 205.68 40.8613Z" fill="#263238"/>
<path d="M213.218 48.4363C213.218 48.4363 211.042 52.7109 204.743 51.9269L204.781 50.4336C207.724 50.5611 210.645 49.8697 213.218 48.4363Z" fill="#6F4C47"/>
<path d="M208.962 30.9568C209.04 31.1957 209.914 31.1099 210.933 31.2667C211.952 31.4235 212.77 31.7221 212.912 31.5168C212.975 31.416 212.837 31.1883 212.512 30.9493C212.076 30.6546 211.578 30.4631 211.057 30.3894C210.536 30.3157 210.004 30.3616 209.503 30.5237C209.123 30.6619 208.928 30.8448 208.962 30.9568Z" fill="#263238"/>
<path d="M200.685 31.2031C200.835 31.4047 201.432 31.2031 202.179 31.233C202.925 31.2629 203.504 31.4047 203.672 31.2031C203.735 31.1061 203.646 30.9045 203.385 30.7066C203.032 30.4718 202.619 30.3464 202.195 30.3464C201.772 30.3464 201.358 30.4718 201.006 30.7066C200.711 30.9045 200.622 31.1061 200.685 31.2031Z" fill="#263238"/>
<path d="M201.327 25.6443C201.566 25.1893 201.925 24.809 202.366 24.5455C202.806 24.2819 203.312 24.1454 203.825 24.151C204.857 24.1785 205.86 24.5011 206.715 25.0806C210.411 27.3616 212.191 32.6667 215.843 35.0187C216.742 35.5974 217.945 35.127 218.702 35.8811C219.46 36.6352 219.927 37.8187 219.471 38.7856C220.022 38.1399 220.475 37.4181 220.819 36.6427C220.989 36.2532 221.074 35.832 221.068 35.4071C221.063 34.9821 220.966 34.5634 220.786 34.1787C220.479 33.615 219.927 33.1707 219.789 32.5435C219.666 31.991 219.901 31.4235 219.893 30.856C219.843 30.2807 219.661 29.7248 219.359 29.232C217.978 26.6187 216.044 24.2294 213.506 22.7099C211.851 21.6894 209.95 21.1396 208.006 21.1195C206.056 21.1097 204.166 21.7984 202.679 23.0608C201.824 23.8075 200.928 24.5878 201.327 25.6518" fill="#263238"/>
<path d="M218.587 36.6538C218.658 36.4746 221.984 35.3807 221.947 38.8938C221.894 42.2986 218.482 41.5295 218.478 41.4325C218.475 41.3354 218.587 36.6538 218.587 36.6538Z" fill="#936760"/>
<path d="M219.52 40.1482C219.52 40.1482 219.576 40.193 219.677 40.2378C219.747 40.2667 219.821 40.2817 219.897 40.2817C219.973 40.2817 220.047 40.2667 220.117 40.2378C220.491 40.1146 220.793 39.5471 220.823 38.9349C220.837 38.6435 220.786 38.3527 220.674 38.0837C220.643 37.9773 220.587 37.8797 220.511 37.7992C220.435 37.7187 220.341 37.6575 220.237 37.6207C220.166 37.5961 220.089 37.5985 220.02 37.6274C219.951 37.6564 219.895 37.7098 219.863 37.7775C219.819 37.8709 219.837 37.9381 219.819 37.9455C219.8 37.953 219.748 37.8858 219.778 37.7477C219.797 37.6628 219.846 37.5875 219.916 37.5349C219.962 37.5006 220.016 37.4761 220.072 37.4626C220.128 37.4492 220.187 37.4471 220.244 37.4565C220.383 37.4867 220.512 37.5519 220.618 37.646C220.725 37.7401 220.806 37.8599 220.853 37.9941C220.993 38.291 221.057 38.6181 221.039 38.9461C221.006 39.633 220.644 40.2677 220.147 40.3983C220.056 40.4235 219.96 40.4275 219.867 40.41C219.774 40.3926 219.686 40.3541 219.609 40.2975C219.539 40.2303 219.52 40.1557 219.52 40.1482Z" fill="#6F4C47"/>
<path d="M219.99 34.9439C219.92 34.9093 219.853 34.8694 219.789 34.8244C219.662 34.7386 219.464 34.6228 219.229 34.4511C218.572 33.9435 217.973 33.3664 217.441 32.73C216.665 31.7756 215.943 30.7785 215.279 29.7434C214.479 28.4773 213.573 27.2809 212.572 26.1668C212.038 25.6068 211.445 25.1061 210.803 24.6735C210.2 24.282 209.552 23.966 208.873 23.7327C207.722 23.3247 206.504 23.1397 205.285 23.1876C204.462 23.2129 203.645 23.3485 202.858 23.5908C202.642 23.6517 202.429 23.724 202.22 23.8074C202.147 23.8359 202.072 23.8596 201.996 23.8783C202.064 23.8388 202.135 23.8051 202.209 23.7775C202.414 23.6831 202.625 23.6008 202.839 23.5311C203.627 23.2659 204.447 23.1125 205.277 23.0756C206.514 23.0146 207.751 23.1908 208.921 23.5946C209.612 23.8307 210.271 24.1504 210.885 24.5466C211.538 24.9763 212.141 25.4771 212.684 26.0399C213.697 27.1654 214.611 28.3771 215.413 29.6612C216.069 30.6938 216.78 31.6908 217.541 32.6479C218.062 33.2864 218.645 33.8717 219.281 34.3951C219.509 34.578 219.699 34.7012 219.819 34.7946C219.881 34.8384 219.938 34.8884 219.99 34.9439Z" fill="#455A64"/>
<path d="M219.893 40.7605C220.019 40.7402 220.149 40.7563 220.266 40.8068C220.383 40.8573 220.484 40.9402 220.556 41.0458C220.627 41.1513 220.668 41.2752 220.672 41.4028C220.676 41.5305 220.643 41.6566 220.578 41.7665C220.513 41.8763 220.418 41.9654 220.304 42.0232C220.19 42.081 220.062 42.1051 219.935 42.0928C219.808 42.0805 219.687 42.0322 219.587 41.9536C219.486 41.875 219.41 41.7694 219.367 41.649C219.317 41.487 219.327 41.3123 219.395 41.1572C219.464 41.0021 219.587 40.8771 219.74 40.8053" fill="white"/>
<path d="M219.744 40.8053C219.594 40.9184 219.482 41.0748 219.423 41.2533C219.395 41.3457 219.392 41.4435 219.413 41.5376C219.434 41.6317 219.478 41.7188 219.542 41.7909C219.616 41.8823 219.714 41.95 219.826 41.9854C219.937 42.0209 220.057 42.0226 220.169 41.9902C220.282 41.9579 220.382 41.893 220.458 41.8038C220.534 41.7145 220.582 41.6048 220.595 41.4885C220.609 41.3937 220.599 41.297 220.567 41.2066C220.536 41.1162 220.482 41.0349 220.412 40.9696C220.268 40.8484 220.089 40.7753 219.901 40.7605C219.901 40.7605 219.957 40.7269 220.061 40.7269C220.216 40.7317 220.364 40.7882 220.483 40.8875C220.576 40.9606 220.648 41.0565 220.692 41.1658C220.737 41.275 220.752 41.3939 220.737 41.5109C220.721 41.6561 220.662 41.7932 220.568 41.9053C220.475 42.0175 220.35 42.0997 220.211 42.1419C220.069 42.1771 219.921 42.1716 219.783 42.126C219.645 42.0804 219.523 41.9966 219.43 41.8843C219.356 41.7932 219.307 41.6845 219.287 41.5686C219.268 41.4528 219.278 41.3339 219.318 41.2235C219.363 41.0722 219.458 40.9406 219.587 40.8501C219.68 40.8053 219.74 40.7979 219.744 40.8053Z" fill="#263238"/>
<path d="M219.109 35.881C219.135 36.8106 219.15 37.7925 218.695 38.6063C218.239 39.4202 217.146 39.9503 216.35 39.465C215.704 39.0693 215.529 38.2218 215.439 37.4677C215.178 35.2911 215.096 33.0997 214.816 30.9269L219.109 35.881Z" fill="#263238"/>
<path d="M202.212 24.0501C202.212 24.0501 202.515 24.0016 203.06 24.0016C203.83 24.0092 204.592 24.1704 205.3 24.4757C205.787 24.6767 206.252 24.9269 206.688 25.2224C207.185 25.5787 207.66 25.9639 208.111 26.376C209.153 27.3126 210.079 28.3704 210.87 29.5269C211.284 30.1466 211.646 30.7776 212.046 31.3674C212.421 31.9415 212.864 32.4691 213.364 32.9392C214.224 33.7123 215.17 34.385 216.182 34.944C217.041 35.4293 217.758 35.7728 218.254 36.008L218.829 36.273C218.893 36.3097 218.962 36.3361 219.035 36.3514C218.975 36.3076 218.911 36.2701 218.844 36.2394L218.288 35.9408C217.803 35.6869 217.093 35.3248 216.249 34.8208C215.258 34.2515 214.331 33.5755 213.487 32.8048C212.999 32.3409 212.568 31.8208 212.203 31.2554C211.829 30.673 211.456 30.0384 211.027 29.4112C210.229 28.2408 209.289 27.1748 208.227 26.2378C207.767 25.8255 207.283 25.4403 206.778 25.0842C206.33 24.784 205.851 24.5336 205.348 24.3376C204.624 24.037 203.844 23.892 203.06 23.912C202.847 23.9188 202.634 23.9425 202.425 23.9829C202.351 23.995 202.28 24.0176 202.212 24.0501Z" fill="#455A64"/>
<path d="M219.262 33.7829C219.35 33.8673 219.449 33.939 219.557 33.9957L220.405 34.5258L220.688 34.7013C220.802 34.7725 220.929 34.8184 221.062 34.8357C221.142 34.845 221.223 34.828 221.293 34.7872C221.33 34.7628 221.361 34.7303 221.384 34.6922C221.407 34.654 221.42 34.6111 221.424 34.5669C221.423 34.4096 221.372 34.2567 221.278 34.1301C220.983 33.6336 220.662 33.0848 220.323 32.5024L220.184 32.6256C220.84 33.1314 221.649 33.3952 222.477 33.3722C222.582 33.3733 222.686 33.3582 222.787 33.3274C222.845 33.3113 222.899 33.283 222.945 33.2443C222.991 33.2057 223.029 33.1577 223.055 33.1034C223.076 33.0465 223.082 32.9855 223.073 32.9257C223.065 32.8659 223.042 32.809 223.007 32.76C222.952 32.6803 222.89 32.6065 222.82 32.5397C222.382 32.0941 222.005 31.5918 221.7 31.0464C221.432 30.5377 221.203 30.0099 221.013 29.4672C221.022 29.6251 221.054 29.781 221.107 29.9301C221.226 30.342 221.386 30.7409 221.584 31.121C221.884 31.6872 222.261 32.2087 222.704 32.6704C222.828 32.7936 222.951 32.9354 222.899 33.0437C222.846 33.152 222.66 33.1968 222.48 33.193C222.091 33.2007 221.703 33.1413 221.334 33.0176C220.959 32.9013 220.608 32.7193 220.296 32.48L219.893 32.1701L220.151 32.5994L221.125 34.216C221.201 34.313 221.248 34.4295 221.26 34.552C221.26 34.649 221.17 34.7013 221.062 34.6901C220.845 34.6396 220.64 34.5484 220.457 34.4213L219.583 33.9397C219.481 33.8785 219.374 33.826 219.262 33.7829Z" fill="#455A64"/>
<path d="M208.947 42.5599C208.891 42.2997 208.744 42.0675 208.534 41.9038C208.324 41.7401 208.063 41.6552 207.797 41.6639C207.603 41.6831 207.416 41.75 207.254 41.8588C207.092 41.9676 206.959 42.1148 206.868 42.2874C206.78 42.4592 206.728 42.6466 206.713 42.8388C206.698 43.031 206.722 43.2243 206.782 43.4074V43.4895C206.955 43.6935 207.188 43.8388 207.447 43.9056C207.706 43.9724 207.98 43.9575 208.23 43.8629C208.477 43.756 208.682 43.57 208.812 43.3341C208.942 43.0982 208.989 42.8259 208.947 42.5599Z" fill="#6F4C47"/>
<path d="M206.166 43.5045C206.166 43.3739 207.047 43.4411 207.73 42.7579C208.413 42.0747 208.391 41.1077 208.514 41.1115C208.57 41.1115 208.671 41.3317 208.648 41.7312C208.616 42.2464 208.402 42.7333 208.044 43.1051C207.702 43.4644 207.233 43.6761 206.737 43.6949C206.367 43.68 206.155 43.5643 206.166 43.5045Z" fill="#263238"/>
<path d="M223.657 53.0431L217.609 52.5354C217.609 52.5354 214.293 56.9333 209.739 56.5935C205.184 56.2538 204.706 53.2074 204.706 53.2074C200.852 54.1568 197.342 56.1681 194.574 59.0127L194.473 59.1397L186.704 74.3717L195.645 81.6703L196.515 80.2591L198.613 90.7983L195.873 94.5765L199.27 97.9365C203.875 102.476 210.079 105.023 216.545 105.03L230.892 105.052L223.657 53.0431Z" fill="#EDC90F"/>
<path d="M222.701 53.0133C222.701 53.0133 225.392 53.0133 226.979 53.8944C231.295 56.3322 237.108 70.2277 237.108 70.2277L225.534 76.7498C225.534 76.7498 221.387 67.8682 220.013 63.601C219.692 62.6005 220.423 57.5978 220.423 57.6277C220.423 57.6576 222.701 53.0992 222.701 53.0133Z" fill="#EDC90F"/>
<path d="M195.108 65.2139C195.125 65.2974 195.132 65.3825 195.13 65.4677C195.13 65.6544 195.149 65.8971 195.16 66.1957C195.16 66.8304 195.22 67.7451 195.279 68.8763C195.399 71.1387 195.653 74.256 196.134 77.6757C196.616 81.0955 197.254 84.1643 197.77 86.3707C198.027 87.4907 198.244 88.3643 198.401 88.984L198.576 89.6933C198.601 89.7747 198.617 89.8586 198.625 89.9435C198.589 89.8652 198.56 89.784 198.539 89.7008L198.33 89.0027C198.147 88.3941 197.908 87.5093 197.635 86.408C196.925 83.5402 196.36 80.6381 195.944 77.7131C195.529 74.7877 195.261 71.8434 195.141 68.8912C195.1 67.7712 195.082 66.8379 195.085 66.2032C195.085 65.9045 195.085 65.6619 195.085 65.4752C195.083 65.3875 195.091 65.2999 195.108 65.2139Z" fill="#263238"/>
<g opacity="0.3">
<path opacity="0.3" d="M227.733 88.4986C226.923 87.6025 225.991 86.8257 224.963 86.1914L203.418 71.4858L202.373 72.3594C202.283 74.0544 203.638 75.4469 204.911 76.5744C211.843 82.7086 219.436 88.0527 227.55 92.5082C227.721 92.6232 227.923 92.6855 228.129 92.6874C228.502 92.6501 228.958 92.0192 229.025 91.6421C229.249 90.4549 228.513 89.4357 227.733 88.4986Z" fill="black"/>
</g>
<path d="M237.108 70.2128C237.035 70.2675 236.959 70.3173 236.88 70.3621L236.215 70.7579L233.751 72.1803L225.564 76.8171L225.471 76.8731L225.43 76.7723L225.366 76.6267L221.592 67.8944C221.125 66.7744 220.741 65.8859 220.472 65.2363C220.349 64.9376 220.252 64.6949 220.177 64.512C220.14 64.4284 220.109 64.3423 220.084 64.2544C220.135 64.3304 220.177 64.4118 220.211 64.4971C220.297 64.6763 220.405 64.9115 220.543 65.2064L221.723 67.8384C222.708 70.0784 224.056 73.1584 225.549 76.552L225.609 76.6939L225.475 76.6491L233.688 72.0608L236.182 70.6907L236.865 70.3173C236.942 70.2735 237.023 70.2384 237.108 70.2128Z" fill="#263238"/>
<path d="M157.972 142.438C157.972 142.438 170.792 101.016 173.029 97.7349C175.265 94.4533 179.293 90.5781 187.193 92.3701C195.093 94.1621 217.313 101.614 222.383 102.823C227.453 104.033 229.992 104.339 229.992 104.339C229.992 104.339 232.87 107.841 232.87 115.912C232.87 125.559 222.88 125.425 218.258 125.724C213.636 126.022 199.965 126.097 199.965 126.097L195.175 163.348C195.175 163.348 190.493 165.136 187.361 162.008C184.229 158.879 185.423 155.445 180.801 154.997C176.18 154.549 169.62 154.25 167.828 146.35C166.036 138.451 157.972 142.438 157.972 142.438Z" fill="#263238"/>
<path d="M187.947 107.718C187.945 107.757 187.937 107.796 187.925 107.834C187.899 107.916 187.869 108.028 187.831 108.162C187.745 108.464 187.622 108.89 187.458 109.428C187.129 110.548 186.655 112.123 186.073 114.076C184.901 118.007 183.28 123.409 181.496 129.382C179.711 135.356 178.136 140.795 177.016 144.73C176.46 146.69 176.012 148.28 175.694 149.393L175.321 150.662C175.284 150.8 175.25 150.909 175.224 150.991C175.215 151.029 175.203 151.067 175.187 151.103C175.188 151.064 175.195 151.025 175.205 150.987C175.228 150.901 175.254 150.793 175.284 150.655L175.608 149.374C175.888 148.254 176.325 146.668 176.867 144.693C177.96 140.747 179.528 135.315 181.309 129.326C183.09 123.338 184.736 117.928 185.942 114.02C186.551 112.075 187.044 110.495 187.387 109.39L187.79 108.136L187.902 107.811C187.914 107.778 187.929 107.747 187.947 107.718Z" fill="#455A64"/>
<path d="M205.292 103.682C205.231 103.688 205.17 103.688 205.109 103.682L204.579 103.701C204.12 103.701 203.459 103.742 202.641 103.798C200.511 103.952 198.399 104.308 196.336 104.862C194.271 105.404 192.284 106.211 190.426 107.262L189.922 107.557L189.485 107.841C189.213 108.02 188.977 108.173 188.798 108.315L188.369 108.625C188.32 108.662 188.267 108.695 188.212 108.722C188.212 108.722 188.253 108.674 188.343 108.591L188.753 108.255C188.969 108.076 189.193 107.908 189.425 107.751L189.855 107.453L190.355 107.147C192.207 106.049 194.204 105.217 196.287 104.675C198.361 104.114 200.489 103.774 202.634 103.66C203.455 103.622 204.127 103.607 204.583 103.626H205.113C205.175 103.635 205.236 103.654 205.292 103.682Z" fill="#455A64"/>
<path d="M188.212 157.819C188.156 157.819 188.339 149.288 188.612 138.779C188.884 128.27 189.157 119.739 189.209 119.739C189.261 119.739 189.082 128.274 188.81 138.779C188.537 149.285 188.265 157.823 188.212 157.819Z" fill="#455A64"/>
<path d="M187.04 99.6277C187.04 99.6277 187.122 99.7061 187.242 99.8704C187.405 100.102 187.553 100.344 187.686 100.595C188.126 101.428 188.435 102.325 188.6 103.253C188.765 104.181 188.783 105.13 188.653 106.064C188.614 106.346 188.558 106.625 188.485 106.9C188.429 107.094 188.395 107.199 188.38 107.195C188.365 107.191 188.447 106.755 188.518 106.049C188.699 104.198 188.368 102.334 187.563 100.658C187.268 100.016 187.04 99.6464 187.04 99.6277Z" fill="#455A64"/>
<path d="M167.679 132.955C167.311 131.353 167.071 129.724 166.962 128.083C167.179 128.877 167.331 129.687 167.418 130.506C167.569 131.314 167.656 132.133 167.679 132.955Z" fill="white"/>
<path d="M176.411 140.489C176.202 140.65 175.972 140.783 175.728 140.885C175.295 141.105 174.69 141.4 174.018 141.714C173.346 142.027 172.734 142.3 172.286 142.49C172.049 142.61 171.798 142.702 171.539 142.763C171.749 142.601 171.978 142.468 172.223 142.367C172.656 142.143 173.257 141.852 173.929 141.538C174.601 141.224 175.213 140.948 175.661 140.762C175.899 140.641 176.151 140.549 176.411 140.489Z" fill="white"/>
<path d="M177.083 129.364C176.636 128.356 176.31 127.298 176.113 126.213C176.364 126.706 176.558 127.225 176.691 127.762C176.885 128.279 177.017 128.816 177.083 129.364Z" fill="white"/>
<path d="M172.894 115.36C172.294 115.694 171.643 115.93 170.968 116.058C170.307 116.249 169.62 116.335 168.933 116.312C168.933 116.256 169.833 116.133 170.923 115.871C172.013 115.61 172.876 115.319 172.894 115.36Z" fill="white"/>
<path d="M182.702 116.29C182.437 115.711 182.229 115.109 182.082 114.49C181.878 113.883 181.733 113.258 181.649 112.623C181.918 113.201 182.126 113.805 182.269 114.427C182.477 115.031 182.622 115.655 182.702 116.29Z" fill="white"/>
<path d="M177.647 105.653C177.542 104.753 177.567 103.843 177.722 102.95C177.826 103.85 177.801 104.761 177.647 105.653Z" fill="white"/>
<path d="M180.32 96.1967C179.771 96.3422 179.208 96.4261 178.64 96.4469C178.079 96.5301 177.51 96.5489 176.945 96.5029C177.494 96.3574 178.058 96.2735 178.625 96.2527C179.186 96.1695 179.755 96.1508 180.32 96.1967Z" fill="white"/>
<path d="M192.312 100.778C192.016 99.9039 191.848 98.9924 191.811 98.0709C191.988 98.4982 192.105 98.948 192.158 99.4075C192.271 99.8551 192.323 100.316 192.312 100.778Z" fill="white"/>
<path d="M203.683 99.3066C202.863 99.8779 201.973 100.343 201.036 100.692C201.853 100.115 202.743 99.6489 203.683 99.3066Z" fill="white"/>
<path d="M196.564 113.594C195.81 113.131 195.092 112.612 194.417 112.041C193.701 111.521 193.022 110.951 192.386 110.335C193.141 110.798 193.86 111.317 194.537 111.888C195.251 112.409 195.929 112.979 196.564 113.594Z" fill="white"/>
<path d="M206.173 108.912C205.717 109.381 205.217 109.805 204.68 110.178C204.183 110.603 203.645 110.978 203.075 111.298C204.021 110.401 205.059 109.604 206.17 108.92L206.173 108.912Z" fill="white"/>
<path d="M220.987 108.136C220.039 107.034 219.19 105.851 218.448 104.6C219.398 105.701 220.248 106.884 220.987 108.136Z" fill="white"/>
<path d="M228.376 114.83C228.173 115.067 227.945 115.283 227.696 115.472C227.256 115.845 226.64 116.349 225.941 116.883C225.243 117.417 224.597 117.887 224.12 118.212C223.874 118.405 223.607 118.569 223.324 118.701C223.542 118.479 223.781 118.277 224.037 118.1L225.822 116.73L227.606 115.364C227.844 115.16 228.102 114.981 228.376 114.83Z" fill="white"/>
<path d="M213.662 120.732C213.661 119.911 213.727 119.09 213.86 118.279C213.921 117.462 214.045 116.651 214.233 115.853C214.235 116.673 214.169 117.492 214.036 118.302C213.974 119.12 213.85 119.933 213.662 120.732Z" fill="white"/>
<path d="M205.542 123.655C205.273 123.591 205.014 123.489 204.773 123.353C204.176 123.063 203.595 122.741 203.033 122.386C202.471 122.032 201.93 121.645 201.413 121.229C201.188 121.068 200.985 120.878 200.808 120.665C200.846 120.62 201.831 121.412 203.138 122.222C204.445 123.032 205.568 123.603 205.542 123.655Z" fill="white"/>
<path d="M193.047 126.612C193.006 126.575 193.73 125.787 194.518 124.746C195.305 123.704 195.869 122.793 195.918 122.823C195.599 123.556 195.181 124.242 194.675 124.861C194.216 125.518 193.668 126.107 193.047 126.612Z" fill="white"/>
<path d="M194.458 140.597C193.911 139.993 193.411 139.346 192.965 138.663C192.462 138.019 192.013 137.335 191.621 136.618C192.167 137.223 192.667 137.869 193.114 138.551C193.617 139.196 194.066 139.88 194.458 140.597Z" fill="white"/>
<path d="M186.099 133.87C185.197 132.9 184.395 131.842 183.706 130.711C184.177 131.177 184.603 131.686 184.979 132.231C185.404 132.74 185.779 133.289 186.099 133.87Z" fill="white"/>
<path d="M186.125 142.292C185.513 142.638 184.871 142.928 184.206 143.158C183.564 143.447 182.897 143.677 182.213 143.845C182.825 143.5 183.467 143.21 184.132 142.979C184.774 142.69 185.441 142.46 186.125 142.292Z" fill="white"/>
<path d="M184.18 152.454C183.755 151.909 183.38 151.327 183.06 150.715C182.688 150.132 182.37 149.516 182.112 148.874C182.91 150.001 183.601 151.199 184.176 152.454H184.18Z" fill="white"/>
<path d="M193.361 157.457C192.587 158.541 191.712 159.548 190.747 160.466C191.108 159.904 191.523 159.379 191.987 158.898C192.395 158.373 192.856 157.89 193.361 157.457Z" fill="white"/>
<path d="M226.852 75.9845L229.465 81.9951L217.048 75.4543L213.173 80.8602C213.173 80.8602 227.319 91.8399 232.475 93.0421C236.801 94.0389 240.035 91.3135 240.262 87.4869C240.464 84.1269 235.532 71.0975 235.532 71.0975L226.852 75.9845Z" fill="#936760"/>
<path d="M233.591 84.4032C233.554 84.448 232.643 83.72 231.414 82.9808C230.186 82.2416 229.118 81.7712 229.145 81.7152C229.397 81.7636 229.641 81.8478 229.869 81.9653C230.437 82.2091 230.987 82.4922 231.515 82.8128C232.045 83.133 232.553 83.4885 233.035 83.8768C233.246 84.0232 233.433 84.2007 233.591 84.4032Z" fill="#6F4C47"/>
<path d="M216.724 74.9765C216.829 74.0827 216.737 73.1767 216.455 72.3221C215.985 70.8287 214.215 68.8351 214.424 67.8421C214.633 66.849 213.424 66.9759 212.987 68.1295C212.707 68.8762 213.009 71.4223 213.009 71.4223C213.009 71.4223 211.172 70.8511 210.482 69.5893C209.791 68.3274 206.748 64.9637 206.032 65.2399C205.225 65.5535 206.076 66.3599 206.353 66.8341C206.558 67.2074 208.283 69.9439 208.283 69.9439C208.283 69.9439 203.467 66.7631 202.72 66.6213C201.891 66.4645 202.22 67.4799 202.522 67.6815C202.713 67.8085 201.749 67.9391 202.007 68.8575C202.183 69.4847 203.93 71.1535 204.479 71.5007L205.599 72.2138L201.906 70.4629C201.906 70.4629 200.969 70.6458 201.63 71.441C201.925 71.7957 211.523 79.729 212.311 80.2778C213.674 81.2186 215.671 82.4917 215.671 82.4917L219.274 76.6565L216.724 74.9765Z" fill="#936760"/>
<path d="M101.778 89.5999C102.055 89.2971 102.247 88.9268 102.336 88.5261C102.425 88.1255 102.407 87.7086 102.283 87.3172C102.16 86.9258 101.936 86.5737 101.634 86.2961C101.331 86.0186 100.962 85.8254 100.561 85.7359L104.78 82.8986L101.629 78.217C101.7 78.7419 101.592 79.2755 101.321 79.731C101.051 80.1864 100.634 80.5367 100.139 80.7249C99.6433 80.9131 99.099 80.928 98.5942 80.7672C98.0895 80.6065 97.654 80.2795 97.3588 79.8396C97.0636 79.3998 96.9261 78.8729 96.9687 78.3448C97.0113 77.8168 97.2314 77.3187 97.5933 76.9318C97.9551 76.5449 98.4373 76.292 98.9613 76.2142C99.4853 76.1364 100.02 76.2383 100.479 76.5034L96.9472 71.2767L85.3066 79.1167L93.1466 90.7573L97.7312 87.6735C97.6582 88.1697 97.7463 88.6762 97.9824 89.1186C98.2185 89.561 98.5903 89.916 99.0431 90.1316C99.4959 90.3471 100.006 90.4118 100.498 90.3161C100.99 90.2204 101.439 89.9694 101.778 89.5999Z" fill="#E0E0E0"/>
<path d="M100.778 89.5999C100.691 89.703 100.593 89.7969 100.487 89.8799C100.18 90.13 99.8131 90.296 99.4226 90.3615C99.1063 90.4172 98.7819 90.4079 98.4693 90.3341C98.1567 90.2603 97.8624 90.1235 97.6045 89.9321C97.2522 89.6737 96.9785 89.3226 96.8137 88.918C96.649 88.5133 96.5996 88.0709 96.6711 87.6399L96.7533 87.6922L92.1799 90.7908L92.0792 90.7684L84.2317 79.1466L84.2578 79.0159L93.7965 72.5945C94.5021 72.1204 95.2002 71.6463 95.8946 71.1833L96.029 71.2095L99.557 76.4548L99.4301 76.5892C99.08 76.3862 98.6815 76.2818 98.2769 76.2871C97.8723 76.2924 97.4767 76.4072 97.1321 76.6193C96.7875 76.8315 96.5068 77.133 96.3198 77.4918C96.1328 77.8507 96.0465 78.2535 96.0701 78.6575C96.0944 79.175 96.2991 79.6677 96.6487 80.05C96.8917 80.326 97.1988 80.538 97.543 80.6672C97.8872 80.7964 98.2579 80.8389 98.6224 80.7909C98.9869 80.743 99.3341 80.606 99.6331 80.3921C99.9322 80.1783 100.174 79.8941 100.337 79.5647C100.544 79.1529 100.622 78.6886 100.561 78.2319L100.707 78.1759C101.849 79.8857 102.902 81.4575 103.847 82.865L103.828 82.9583L99.5981 85.7807V85.6948C99.9472 85.7751 100.274 85.9333 100.553 86.1577C100.832 86.382 101.057 86.6667 101.211 86.9903C101.394 87.3673 101.473 87.7868 101.438 88.2046C101.403 88.6225 101.256 89.0232 101.013 89.3647C100.952 89.4518 100.882 89.532 100.804 89.6036C100.804 89.6036 100.875 89.5215 100.991 89.3498C101.164 89.0908 101.284 88.8003 101.345 88.4948C101.462 87.9019 101.342 87.287 101.012 86.7812C100.681 86.2755 100.166 85.9191 99.5757 85.7881V85.7023L103.783 82.85L103.764 82.9396L100.606 78.2655L100.748 78.2095C100.816 78.6989 100.734 79.1974 100.513 79.6394C100.284 80.0973 99.9155 80.4702 99.4599 80.7034C98.99 80.9455 98.454 81.028 97.933 80.9386C97.3964 80.8498 96.907 80.5781 96.5479 80.1695C96.2622 79.8552 96.0636 79.4716 95.972 79.0568C95.8804 78.642 95.8989 78.2105 96.0257 77.8051C96.1526 77.3997 96.3833 77.0345 96.695 76.7459C97.0066 76.4573 97.3884 76.2553 97.8023 76.1599C98.3901 76.0374 99.0023 76.1343 99.5234 76.4324L99.4002 76.5668L95.8685 71.3401L96.0029 71.3663L93.9047 72.7775L84.3586 79.1913L84.3848 79.0644L92.1986 90.7199H92.1016L96.6935 87.6511L96.7757 87.7034C96.7028 88.1604 96.7687 88.6289 96.9648 89.0482C97.1608 89.4675 97.4781 89.8183 97.8756 90.0555C98.2731 90.2926 98.7326 90.4051 99.1947 90.3785C99.6568 90.3518 100.1 90.1873 100.468 89.906C100.677 89.7119 100.77 89.5999 100.778 89.5999Z" fill="#263238"/>
<path d="M68.5701 57.4261C68.027 54.1997 66.279 51.3001 63.6794 49.3135L63.9445 49.1642C61.4767 48.0442 58.225 49.2762 57.1013 51.7365C56.6383 52.7445 56.5114 53.8682 56.2426 54.9434C55.9738 56.0186 55.4959 57.1237 54.5887 57.7471C54.0997 58.0831 53.5173 58.2511 53.0133 58.5573C52.5093 58.8634 52.0463 59.3749 52.0837 59.9647C52.1285 60.7114 52.9311 61.1967 53.6703 61.3535C54.4095 61.5103 55.2197 61.5103 55.8543 61.9173C55.5861 62.0904 55.3555 62.3159 55.1766 62.5803C54.9976 62.8447 54.8739 63.1425 54.8129 63.4559C54.7518 63.7692 54.7547 64.0917 54.8213 64.4039C54.888 64.7162 55.017 65.0117 55.2007 65.2729C55.3843 65.534 55.6188 65.7554 55.8901 65.9237C56.1615 66.092 56.464 66.2038 56.7795 66.2523C57.0951 66.3008 57.4172 66.2851 57.7265 66.2061C58.0358 66.127 58.326 65.9864 58.5797 65.7925C58.0309 67.0021 58.6469 68.5402 59.7743 69.2421C60.357 69.5666 61.0098 69.7443 61.6766 69.76C62.3433 69.7756 63.0038 69.6286 63.601 69.3317C64.7929 68.7251 65.7989 67.808 66.513 66.6773C68.3481 63.9664 69.0835 60.6591 68.5701 57.4261Z" fill="#263238"/>
<path d="M86.027 52.1845C85.9523 51.2735 85.1609 50.553 84.291 50.2693C83.4048 50.0425 82.4829 49.9905 81.5769 50.1162C81.9838 48.9701 82.4019 47.7829 82.3235 46.5695C82.2451 45.3562 81.5769 44.0869 80.4121 43.7135C79.4153 43.3925 78.3251 43.7882 77.4254 44.3258C76.5257 44.8634 75.6894 45.5429 74.6926 45.8677C72.1017 46.7151 69.3502 44.9231 66.6323 45.121C63.8398 45.3301 61.1593 48.1749 61.219 50.9749C65.4713 53.2149 69.7683 55.4773 73.4233 58.5983C75.4019 60.2858 77.4963 62.3317 80.0947 62.2421C80.9071 62.2116 81.6962 61.962 82.3784 61.5198C83.0606 61.0776 83.6106 60.4593 83.9702 59.7301C84.3298 59.001 84.4856 58.1882 84.4212 57.3778C84.3567 56.5674 84.0744 55.7895 83.6041 55.1263C84.7913 54.4842 86.1427 53.5285 86.027 52.1845Z" fill="#263238"/>
<path d="M80.8377 57.8665C80.9982 54.2377 77.5038 50.2169 73.8675 50.2095L61.9731 51.1465L61.8051 53.0916L59.9385 77.1865C59.9385 77.1865 60.1027 85.0265 66.6846 85.3065C72.6019 85.5417 72.9491 79.3033 72.9491 79.3033L73.259 74.7524C73.259 74.7524 78.0227 75.0735 79.6281 69.1524C80.4195 66.2367 80.6398 61.8873 80.8377 57.8665Z" fill="#FFBE9D"/>
<path d="M78.6909 63.0373C78.6719 63.2384 78.5749 63.4241 78.4207 63.5546C78.2665 63.6851 78.0673 63.75 77.8658 63.7354C77.7671 63.7321 77.67 63.7091 77.5802 63.668C77.4904 63.6269 77.4097 63.5683 77.3426 63.4957C77.2756 63.4232 77.2237 63.338 77.1898 63.2452C77.1559 63.1524 77.1408 63.0538 77.1453 62.9551C77.1652 62.7544 77.2625 62.5693 77.4165 62.439C77.5705 62.3087 77.7691 62.2434 77.9704 62.257C78.0691 62.2604 78.1662 62.2833 78.256 62.3244C78.3458 62.3656 78.4266 62.4241 78.4936 62.4967C78.5606 62.5693 78.6125 62.6544 78.6464 62.7472C78.6803 62.84 78.6954 62.9386 78.6909 63.0373Z" fill="#263238"/>
<path d="M79.4301 60.9354C79.3256 61.025 78.788 60.5322 77.9592 60.4426C77.1304 60.353 76.4658 60.7039 76.3949 60.5957C76.324 60.4874 76.4733 60.3754 76.7682 60.2223C77.1529 60.0106 77.5941 59.9245 78.0301 59.9759C78.4579 60.019 78.8614 60.1953 79.1837 60.4799C79.4152 60.7039 79.4824 60.8981 79.4301 60.9354Z" fill="#263238"/>
<path d="M71.6799 62.298C71.6609 62.4992 71.5639 62.6848 71.4097 62.8153C71.2555 62.9458 71.0563 63.0107 70.8549 62.9962C70.7561 62.9928 70.659 62.9699 70.5692 62.9288C70.4794 62.8876 70.3987 62.8291 70.3317 62.7565C70.2646 62.6839 70.2127 62.5988 70.1788 62.506C70.1449 62.4132 70.1298 62.3146 70.1343 62.2159C70.1542 62.0145 70.252 61.8288 70.4068 61.6984C70.5616 61.568 70.7612 61.5032 70.9631 61.5178C71.0615 61.5216 71.1582 61.5449 71.2476 61.5862C71.337 61.6276 71.4173 61.6862 71.4839 61.7587C71.5505 61.8313 71.6021 61.9162 71.6358 62.0088C71.6694 62.1014 71.6844 62.1997 71.6799 62.298Z" fill="#263238"/>
<path d="M71.7844 60.2411C71.6799 60.3307 71.1423 59.8379 70.3135 59.7483C69.4847 59.6587 68.8201 60.0096 68.7492 59.9013C68.7119 59.8491 68.8276 59.6811 69.1225 59.528C69.5072 59.3163 69.9484 59.2302 70.3844 59.2816C70.8166 59.3273 71.2231 59.509 71.5455 59.8005C71.7695 60.0096 71.8367 60.2037 71.7844 60.2411Z" fill="#263238"/>
<path d="M73.6287 66.5354C74.0828 66.4631 74.5434 66.4394 75.0025 66.4645C75.2153 66.4645 75.4207 66.4645 75.4692 66.3338C75.5177 66.2031 75.4692 66.009 75.3908 65.7887C75.2415 65.3333 75.0847 64.8591 74.9241 64.3589C74.7636 63.8586 73.9124 60.9167 73.9311 60.6479C74.0244 60.6255 74.6255 62.257 75.2713 64.2879C75.4244 64.7882 75.5737 65.2661 75.7119 65.7253C75.7652 65.8358 75.7954 65.9561 75.8005 66.0787C75.8057 66.2013 75.7857 66.3237 75.7417 66.4383C75.6986 66.5 75.6432 66.5521 75.5789 66.5913C75.5147 66.6305 75.443 66.6559 75.3684 66.6661C75.2443 66.6796 75.1191 66.6796 74.9951 66.6661C74.5362 66.6723 74.078 66.6285 73.6287 66.5354Z" fill="#263238"/>
<path d="M73.2888 74.801C70.454 74.5383 67.7477 73.494 65.4712 71.7844C65.4712 71.7844 67.0765 76.201 73.1507 76.2906L73.2888 74.801Z" fill="#EB996E"/>
<path d="M71.1348 66.3412C71.2692 66.3412 71.1758 67.2484 71.8814 67.969C72.587 68.6895 73.5465 68.6932 73.5465 68.8239C73.5465 68.8799 73.315 68.977 72.9081 68.9434C72.3804 68.8948 71.887 68.6606 71.5156 68.2826C71.1577 67.9186 70.9544 67.4303 70.9481 66.9199C70.9332 66.5428 71.075 66.33 71.1348 66.3412Z" fill="#263238"/>
<path d="M71.8103 57.4447C71.6871 57.6911 70.9927 57.4223 70.1229 57.3887C69.253 57.3551 68.5063 57.5231 68.4429 57.2692C68.413 57.146 68.581 56.9257 68.9095 56.7279C69.311 56.4952 69.7713 56.3837 70.2349 56.4068C70.6852 56.4268 71.1182 56.586 71.4743 56.8623C71.7506 57.0937 71.8626 57.3289 71.8103 57.4447Z" fill="#263238"/>
<path d="M79.7662 58.0906C79.6056 58.3072 79.0195 58.0533 78.2728 58.0197C77.5262 57.9861 76.9288 58.1242 76.7795 57.8853C76.7235 57.7696 76.828 57.5456 77.1043 57.344C77.4601 57.098 77.8903 56.9832 78.3213 57.0192C78.764 57.0319 79.1882 57.1997 79.5198 57.4933C79.7624 57.7472 79.8371 57.9824 79.7662 58.0906Z" fill="#263238"/>
<path d="M80.6845 54.3909C79.8258 52.2181 77.9181 50.5605 75.7528 49.6795C73.5874 48.7984 71.1832 48.6453 68.8573 48.8768C66.5385 49.1712 64.2475 49.6531 62.0066 50.3179C61.4616 50.4635 60.8605 50.6464 60.5581 51.1243C60.3784 51.4696 60.2897 51.8551 60.3005 52.2443C60.1064 55.4798 59.911 58.7154 59.7144 61.9509L60.3528 64.0267C61.3944 64.1573 62.365 63.4965 63.1341 62.7872C65.8448 60.2636 67.4832 56.7957 67.7112 53.0992C67.9246 53.5609 68.0633 54.0536 68.1218 54.5589C68.1527 54.8123 68.2437 55.0546 68.3872 55.2656C68.5308 55.4767 68.7226 55.6504 68.9469 55.7723C69.7346 56.0859 70.5261 55.2421 70.7501 54.4208C70.9741 53.5995 70.9368 52.6773 71.4296 51.9867C72.125 53.2779 73.104 54.3947 74.293 55.2533C74.853 55.6603 75.6146 56 76.2008 55.6267C76.3969 55.4814 76.5484 55.2841 76.6382 55.0571C76.7279 54.8301 76.7523 54.5825 76.7085 54.3424C76.6106 53.8688 76.4244 53.418 76.1597 53.0133C77.0285 54.2139 78.2286 55.1351 79.613 55.664C79.7565 55.7388 79.915 55.78 80.0767 55.7845C80.2384 55.789 80.399 55.7567 80.5464 55.6901C80.9421 55.4251 80.86 54.8277 80.6845 54.3909Z" fill="#263238"/>
<path d="M62.3465 60.0021C62.2606 59.9536 58.7662 58.5387 58.5123 62.2197C58.2585 65.9008 62.0105 65.4005 62.0254 65.296C62.0403 65.1915 62.3465 60.0021 62.3465 60.0021Z" fill="#FFBE9D"/>
<path d="M60.9763 63.8399C60.9763 63.8399 60.9091 63.881 60.7971 63.922C60.6411 63.9776 60.4694 63.9696 60.3192 63.8996C59.9459 63.7316 59.6547 63.0895 59.6808 62.4063C59.6934 62.0897 59.7763 61.7798 59.9235 61.4991C59.9661 61.3868 60.0352 61.2864 60.1249 61.2064C60.2146 61.1265 60.3222 61.0694 60.4387 61.0399C60.5147 61.024 60.5939 61.0355 60.6623 61.0724C60.7306 61.1093 60.7837 61.1692 60.812 61.2415C60.8531 61.346 60.812 61.4207 60.8419 61.4282C60.8718 61.4356 60.9278 61.3722 60.9091 61.2154C60.8937 61.1233 60.8477 61.0391 60.7784 60.9764C60.6828 60.8927 60.5582 60.8498 60.4312 60.857C60.2778 60.8767 60.1321 60.9354 60.0079 61.0276C59.8837 61.1197 59.7852 61.2423 59.7219 61.3834C59.5415 61.6911 59.4402 62.0387 59.427 62.3951C59.4008 63.1418 59.7331 63.8586 60.2558 64.049C60.3526 64.0846 60.4562 64.098 60.5589 64.0883C60.6617 64.0786 60.7609 64.0461 60.8494 63.993C60.9651 63.9108 60.9912 63.8399 60.9763 63.8399Z" fill="#EB996E"/>
<path d="M67.0018 52.554C66.9792 52.6278 66.9466 52.6982 66.9048 52.7631C66.8338 52.8937 66.7256 53.0879 66.5725 53.3268C66.1403 54.0068 65.6399 54.641 65.0792 55.2196C64.6916 55.6204 64.2775 55.9945 63.8397 56.3396C63.597 56.5225 63.3544 56.7129 63.093 56.8847C62.8118 57.0875 62.4764 57.2019 62.1298 57.2132C61.9427 57.2038 61.7609 57.1476 61.6011 57.0498C61.4413 56.952 61.3086 56.8156 61.2152 56.6532C61.0242 56.3252 60.9297 55.9499 60.9426 55.5705C60.98 54.794 61.3869 54.1183 61.54 53.3791C61.561 53.2854 61.5772 53.1907 61.5885 53.0953L61.7528 53.1737L60.0914 54.6447L59.3037 55.3428C59.0546 55.5915 58.7462 55.7727 58.4077 55.8692C58.2251 55.904 58.036 55.8694 57.8776 55.7721C57.7326 55.6722 57.6218 55.5302 57.5602 55.3652C57.4535 55.0715 57.4102 54.7585 57.4333 54.4468C57.4654 53.1008 57.9112 51.7973 58.7101 50.7135C58.8377 50.544 58.9748 50.382 59.1208 50.2281C59.169 50.1718 59.2227 50.1205 59.2813 50.0751C59.2813 50.0751 59.0834 50.3103 58.7698 50.7583C58.3306 51.3953 58.006 52.1041 57.8104 52.8527C57.6727 53.368 57.5999 53.8985 57.5938 54.4319C57.5734 54.7209 57.6141 55.0109 57.7133 55.2831C57.7613 55.4136 57.8541 55.5228 57.9751 55.5911C58.0962 55.6595 58.2376 55.6827 58.3741 55.6564C58.6821 55.5646 58.9611 55.3949 59.1842 55.1636L59.9682 54.4655C60.5021 53.9913 61.0509 53.4985 61.6184 52.9983L61.8125 52.8265L61.7826 53.0767C61.7826 53.1737 61.7528 53.2783 61.7304 53.3828C61.5624 54.1593 61.1629 54.8351 61.133 55.5407C61.1216 55.8825 61.2042 56.2208 61.372 56.5188C61.4465 56.6546 61.5539 56.7694 61.6844 56.8529C61.8148 56.9364 61.9641 56.9858 62.1186 56.9967C62.4296 56.9862 62.7307 56.885 62.9848 56.7055C63.2498 56.5375 63.5 56.3508 63.7314 56.1753C64.1679 55.8392 64.5831 55.4764 64.9746 55.0889C65.5409 54.5246 66.0545 53.9098 66.509 53.2521C66.6696 53.0207 66.789 52.834 66.8824 52.7108C66.9194 52.6565 66.9593 52.6042 67.0018 52.554Z" fill="#455A64"/>
<path d="M53.3118 119.623C53.3118 119.623 54.5475 125.179 56.5336 125.727C57.788 126.075 75.5251 128.434 75.5251 128.434L80.3523 132.44L96.5923 123.219L85.676 116.517L77.2051 111.593L62.563 112.205L53.3118 119.623Z" fill="#263238"/>
<path d="M73.6137 77.2202C70.739 78.2357 64.8404 76.3093 60.3529 74.0282C60.0878 74.1178 52.8265 76.1301 51.5086 85.6277C50.1908 95.1253 51.7326 117.91 51.7326 117.91L52.4196 121.001C52.4196 121.001 63.362 114.781 67.8457 113.814C72.3294 112.847 77.2052 111.593 77.2052 111.593L73.6137 77.2202Z" fill="#EDC90F"/>
<g opacity="0.3">
<path opacity="0.3" d="M55.0066 90.3467C55.0066 90.3467 56.9218 100.087 59.8413 102.607C62.7607 105.127 65.5757 105.366 67.8605 104.686C70.1453 104.007 75.9021 100.427 75.9021 100.427L75.7117 98.0896C75.7117 98.0896 62.5815 94.7296 62.5629 94.6213C62.5442 94.5131 55.0066 90.3467 55.0066 90.3467Z" fill="black"/>
</g>
<path d="M61.458 98.209C61.458 98.209 63.3023 103.312 68.1481 102.178C72.994 101.043 88.2111 92.6389 88.2111 92.6389L85.1833 87.4122L70.026 92.105L61.458 98.209Z" fill="#FFBE9D"/>
<path d="M83.1821 88.1327L86.2136 84.4255C86.2136 84.4255 90.9811 81.3978 91.9667 81.4724C92.9523 81.5471 94.2365 81.7748 93.7064 83.2122C93.7064 83.2122 95.2221 83.9588 94.9197 84.8026C94.6173 85.6463 93.5571 85.8666 93.5571 85.8666C93.5571 85.8666 95.2259 86.0943 94.9571 87.1546C94.6883 88.2148 94.0872 88.1364 94.0872 88.1364C94.0872 88.1364 94.5389 88.745 94.1619 89.0474C93.556 89.3995 92.9231 89.7028 92.2691 89.9546C92.2691 89.9546 90.4435 91.7727 89.0845 92.4522C88.1744 92.8874 87.2082 93.1939 86.2136 93.3631L83.1821 88.1327Z" fill="#FFBE9D"/>
<path d="M64.8776 78.3551C63.7162 77.5097 62.2734 77.145 60.8498 77.3369C59.4261 77.5289 58.1315 78.2627 57.2354 79.3855C56.6562 80.0995 56.1626 80.8789 55.7645 81.7076C54.7192 83.929 54.1592 88.9839 54.1592 88.9839L60.3005 99.0975L72.1165 90.6863L66.916 80.0052C66.916 80.0052 66.0386 79.2026 64.8776 78.3551Z" fill="#EDC90F"/>
<path d="M57.4931 77.2799C57.5424 77.2577 57.5936 77.2402 57.6462 77.2277L58.1017 77.0933C58.2062 77.0671 58.3144 77.0261 58.4414 77.0037L58.8595 76.944C59.0255 76.9225 59.1925 76.91 59.3598 76.9066H59.9198C60.8802 76.938 61.8225 77.1761 62.6824 77.6047C63.2149 77.867 63.7159 78.1889 64.1758 78.5642C64.6961 78.9809 65.166 79.4571 65.5758 79.9829L72.0979 90.6528L72.1427 90.7274L72.0718 90.7797L70.123 92.1647L60.2558 99.1647L60.1811 99.217L60.1363 99.1423C58.3107 96.1071 56.7763 93.5759 55.7123 91.7914C55.1859 90.9103 54.7752 90.2122 54.484 89.7269L54.1667 89.1781C54.1267 89.1169 54.093 89.0519 54.0659 88.984C54.1103 89.0414 54.1514 89.1012 54.1891 89.1631C54.2712 89.2938 54.3832 89.473 54.5288 89.697L55.7944 91.7391L60.2744 99.0528L60.155 99.0304L70.0147 91.993L71.9635 90.6079L71.9336 90.7386C69.492 86.7066 67.2595 83.0256 65.4526 80.0464C64.6957 79.0623 63.7307 78.2579 62.6264 77.6906C61.7826 77.262 60.8577 77.0164 59.9123 76.9701H59.3598C59.1971 76.9757 59.035 76.9919 58.8744 77.0186L58.46 77.0671C58.3331 77.0671 58.2211 77.1231 58.1203 77.1455L57.6611 77.2576L57.4931 77.2799Z" fill="#263238"/>
<path d="M94.554 124.376C94.554 124.376 97.2494 128.919 95.9092 132.1C94.5689 135.281 76.5705 152.26 76.5705 152.26L70.3545 147.168L82.4318 131.178L94.554 124.376Z" fill="#FFBE9D"/>
<path d="M77.3732 151.461L76.9999 151.864C76.9999 151.864 81.2671 160.858 80.1508 162.213L66.7444 149.707L71.0937 145.413C72.2249 148.187 74.2148 150.24 77.3732 151.461Z" fill="#EDC90F"/>
<path d="M66.7444 149.707L67.7897 148.672L80.2665 161.041C80.2665 161.041 80.6212 161.855 80.162 162.213L66.7444 149.707Z" fill="#E0E0E0"/>
<path d="M75.4133 153.373C75.4133 153.373 75.4544 153.235 75.6149 153.078C75.827 152.881 76.083 152.738 76.3616 152.66C76.6428 152.583 76.9381 152.572 77.224 152.63C77.4405 152.682 77.5563 152.757 77.5488 152.779C77.174 152.755 76.7976 152.779 76.4288 152.85C76.0688 152.979 75.7274 153.155 75.4133 153.373Z" fill="#263238"/>
<path d="M74.842 152.563C75.1007 152.25 75.4495 152.024 75.841 151.917C76.2325 151.809 76.6476 151.825 77.0298 151.961C76.6476 151.987 76.2674 152.036 75.8911 152.107C75.5328 152.238 75.1826 152.39 74.842 152.563Z" fill="#263238"/>
<path d="M76.1599 154.661C76.1114 154.661 76.3018 154.198 76.7909 153.892C76.9267 153.787 77.0828 153.712 77.2493 153.671C77.4157 153.63 77.5888 153.624 77.7578 153.653C77.7578 153.713 77.3322 153.776 76.8954 154.06C76.4586 154.343 76.1935 154.694 76.1599 154.661Z" fill="#263238"/>
<path d="M77.4516 152.932C77.447 152.698 77.5177 152.469 77.6532 152.279C77.7768 152.063 77.9232 151.862 78.09 151.678C78.1834 151.573 78.2804 151.469 78.385 151.36C78.4409 151.3 78.5021 151.245 78.5679 151.196C78.6119 151.164 78.6629 151.142 78.7167 151.133C78.7704 151.124 78.8256 151.128 78.8778 151.144C78.9343 151.165 78.9822 151.204 79.014 151.256C79.0457 151.307 79.0596 151.368 79.0532 151.428C79.0483 151.519 79.0214 151.607 78.9748 151.685C78.9065 151.818 78.8239 151.943 78.7284 152.059C78.5675 152.253 78.3758 152.419 78.161 152.551C77.9725 152.688 77.7475 152.764 77.5151 152.772C77.5151 152.742 77.754 152.667 78.0826 152.436C78.2731 152.298 78.4428 152.133 78.5866 151.947C78.669 151.837 78.7426 151.721 78.8068 151.599C78.8703 151.48 78.8778 151.342 78.8068 151.334C78.7359 151.327 78.6202 151.39 78.5156 151.502L78.217 151.805C78.0525 151.976 77.9015 152.159 77.7652 152.354C77.5412 152.693 77.4852 152.94 77.4516 152.932Z" fill="#263238"/>
<path d="M77.5821 152.977C77.5821 152.977 77.5411 152.977 77.4664 152.958H77.4104L77.4664 152.921C77.6869 152.785 77.9295 152.689 78.1832 152.637C78.3816 152.592 78.5845 152.57 78.788 152.57C78.9015 152.569 79.015 152.575 79.1277 152.589C79.1976 152.593 79.266 152.611 79.3293 152.641C79.3689 152.66 79.4037 152.688 79.4315 152.722C79.4592 152.756 79.4791 152.796 79.4899 152.839C79.4988 152.897 79.4883 152.956 79.4599 153.007C79.4315 153.059 79.3869 153.099 79.3331 153.123C79.2606 153.155 79.184 153.178 79.1053 153.19C78.9685 153.215 78.83 153.23 78.6909 153.235C78.4553 153.24 78.2201 153.211 77.9928 153.149C77.7792 153.108 77.5812 153.009 77.4216 152.861C77.4216 152.831 77.6531 152.94 78.0264 153.011C78.2425 153.054 78.4636 153.068 78.6835 153.052C78.8091 153.044 78.934 153.027 79.0568 152.999C79.1987 152.999 79.3144 152.917 79.2883 152.88C79.2883 152.768 78.9635 152.768 78.7768 152.757C78.5856 152.749 78.3942 152.762 78.2056 152.794C77.9608 152.835 77.7198 152.896 77.4851 152.977V152.921C77.556 152.943 77.5859 152.97 77.5821 152.977Z" fill="#263238"/>
<path d="M76.884 129.774V178.976H80.8339V129.774H76.884Z" fill="#455A64"/>
<path d="M78.5564 152.548H45.0273V155.814H78.5564V152.548Z" fill="#455A64"/>
<path d="M46.4013 78.0303H42.1826V178.98H46.4013V78.0303Z" fill="#455A64"/>
<path d="M82.8461 126.19H42.1826V133.295H82.8461V126.19Z" fill="#455A64"/>
<path d="M82.8464 133.28C82.8464 133.332 73.7669 133.377 62.5707 133.377C51.3744 133.377 42.2949 133.332 42.2949 133.28C42.2949 133.228 51.3707 133.183 62.5707 133.183C73.7707 133.183 82.8464 133.243 82.8464 133.28Z" fill="#263238"/>
<path d="M62.0105 126.187C62.0105 126.239 57.5305 126.284 52.0425 126.284C46.5545 126.284 42.0745 126.239 42.0745 126.187C42.0745 126.134 46.5545 126.09 52.0425 126.09C57.5305 126.09 62.0105 126.138 62.0105 126.187Z" fill="#263238"/>
<path d="M46.4013 134.475C46.4573 134.475 46.4983 143.517 46.4983 154.664C46.4983 165.812 46.4573 174.854 46.4013 174.854C46.3453 174.854 46.3042 165.816 46.3042 154.664C46.3042 143.513 46.349 134.475 46.4013 134.475Z" fill="#263238"/>
</svg>
