<svg width="30" height="30" viewBox="0 0 30 30" fill="none" xmlns="http://www.w3.org/2000/svg">
<path d="M8.75 5V2.5H21.25V5H25.0088C25.6938 5 26.25 5.55625 26.25 6.24125V26.2588C26.2497 26.5878 26.1188 26.9034 25.8861 27.1361C25.6534 27.3688 25.3378 27.4997 25.0088 27.5H4.99125C4.66215 27.4997 4.34663 27.3688 4.11392 27.1361C3.88121 26.9034 3.75033 26.5878 3.75 26.2588V6.24125C3.75 5.55625 4.30625 5 4.99125 5H8.75ZM8.75 7.5H6.25V25H23.75V7.5H21.25V10H8.75V7.5ZM11.25 5V7.5H18.75V5H11.25Z" fill="#0F1A0D"/>
</svg>
