<svg width="30" height="30" viewBox="0 0 30 30" fill="none" xmlns="http://www.w3.org/2000/svg">
<path d="M25 3.75C25.3315 3.75 25.6495 3.8817 25.8839 4.11612C26.1183 4.35054 26.25 4.66848 26.25 5V25C26.25 25.3315 26.1183 25.6495 25.8839 25.8839C25.6495 26.1183 25.3315 26.25 25 26.25H5C4.66848 26.25 4.35054 26.1183 4.11612 25.8839C3.8817 25.6495 3.75 25.3315 3.75 25V5C3.75 4.66848 3.8817 4.35054 4.11612 4.11612C4.35054 3.8817 4.66848 3.75 5 3.75H25ZM13.75 16.25H6.25V23.75H13.75V16.25ZM16.25 23.75H23.75V6.25H16.25V23.75ZM13.75 6.25H6.25V13.75H13.75V6.25Z" fill="black"/>
</svg>
