<svg width="30" height="30" viewBox="0 0 30 30" fill="none" xmlns="http://www.w3.org/2000/svg">
<path d="M6.6734 22.5708C9.50348 22.4136 11.3902 21.2169 11.7483 18.3257C11.8237 17.3285 11.59 16.3322 11.0789 15.4726C10.5678 14.6129 9.80419 13.9317 8.89205 13.5215C6.99659 12.6481 5.14479 13.2508 3.11831 15.3559C2.0876 13.2508 1.07438 11.1893 0 9.01437C1.74697 8.14088 3.45026 7.2674 5.18849 6.57734C6.28908 6.12313 7.20622 6.84812 7.32851 8.05353C7.32851 8.2981 7.32851 8.54268 7.38092 8.79599C7.39664 9.45157 7.63815 10.0816 8.06466 10.5798C8.49116 11.0779 9.07653 11.4135 9.72187 11.53C10.3989 11.6344 11.0916 11.5216 11.7005 11.2077C12.3094 10.8938 12.8032 10.3951 13.111 9.78303C13.377 9.19814 13.4355 8.53994 13.2767 7.91731C13.1179 7.29468 12.7512 6.74492 12.2375 6.35897L11.8881 6.05325C10.7264 4.98759 10.8312 3.78219 12.2113 3.0572C14.2203 2.01775 16.2555 1.04818 18.3868 0C19.1991 1.63342 19.994 3.24063 20.7801 4.8391C20.9898 5.24964 21.1819 5.71259 21.409 6.08819C22.2825 7.66046 23.5404 7.76528 24.7545 6.47252C25.2193 5.94983 25.7954 5.53794 26.4403 5.26712C26.9252 5.08053 27.4582 5.05991 27.9561 5.20847C28.4539 5.35703 28.8885 5.6664 29.1918 6.08819C29.5952 6.50536 29.8628 7.03489 29.9595 7.60709C30.0561 8.17928 29.9773 8.76734 29.7333 9.29388C29.5264 9.76814 29.1838 10.1705 28.7485 10.4503C28.3133 10.7301 27.805 10.8748 27.2876 10.8661C27.1042 10.8661 26.912 10.8661 26.7286 10.8661C26.3976 10.8531 26.0694 10.9308 25.7794 11.0907C25.4894 11.2507 25.2487 11.4869 25.0832 11.7738C24.9177 12.0607 24.8338 12.3874 24.8405 12.7185C24.8473 13.0496 24.9443 13.3726 25.1214 13.6526C25.8463 15.2161 26.6325 16.7622 27.4448 18.4131L22.2738 20.9724H22.1952C19.5748 22.2215 19.4262 23.0513 21.4353 25.104C21.718 25.3772 21.9411 25.7059 22.0904 26.0696C22.2398 26.4333 22.3123 26.8239 22.3033 27.217C22.2942 27.61 22.2039 27.997 22.038 28.3534C21.8721 28.7098 21.6341 29.028 21.3392 29.2879C21.0323 29.5502 20.6753 29.7471 20.2898 29.8666C19.9043 29.9862 19.4984 30.026 19.0971 29.9835C18.6957 29.941 18.3072 29.8171 17.9553 29.6194C17.6034 29.4217 17.2955 29.1544 17.0504 28.8337C16.7623 28.2966 16.6122 27.6963 16.6136 27.0868C16.5263 25.235 15.1811 24.379 13.5302 25.2088C12.3161 25.8289 11.102 26.4404 9.90529 27.0955C9.25892 27.4536 8.91826 27.2877 8.62127 26.6413C8.04477 25.2699 7.36345 23.951 6.6734 22.5708Z" fill="white"/>
</svg>
