<svg width="30" height="30" viewBox="0 0 30 30" fill="none" xmlns="http://www.w3.org/2000/svg">
<path d="M25.1038 19L26.6063 19.9012C26.699 19.9567 26.7757 20.0353 26.829 20.1293C26.8823 20.2232 26.9103 20.3294 26.9103 20.4375C26.9103 20.5455 26.8823 20.6517 26.829 20.7457C26.7757 20.8397 26.699 20.9182 26.6063 20.9737L15.6438 27.5512C15.4494 27.668 15.2269 27.7297 15.0001 27.7297C14.7733 27.7297 14.5507 27.668 14.3563 27.5512L3.39381 20.9737C3.30112 20.9182 3.22439 20.8397 3.17112 20.7457C3.11785 20.6517 3.08984 20.5455 3.08984 20.4375C3.08984 20.3294 3.11785 20.2232 3.17112 20.1293C3.22439 20.0353 3.30112 19.9567 3.39381 19.9012L4.89631 19L15.0001 25.0625L25.1038 19ZM25.1038 13.125L26.6063 14.0262C26.699 14.0817 26.7757 14.1603 26.829 14.2543C26.8823 14.3482 26.9103 14.4544 26.9103 14.5625C26.9103 14.6705 26.8823 14.7767 26.829 14.8707C26.7757 14.9647 26.699 15.0432 26.6063 15.0987L15.0001 22.0625L3.39381 15.0987C3.30112 15.0432 3.22439 14.9647 3.17112 14.8707C3.11785 14.7767 3.08984 14.6705 3.08984 14.5625C3.08984 14.4544 3.11785 14.3482 3.17112 14.2543C3.22439 14.1603 3.30112 14.0817 3.39381 14.0262L4.89631 13.125L15.0001 19.1875L25.1038 13.125ZM15.6426 1.63621L26.6063 8.21372C26.699 8.26921 26.7757 8.34778 26.829 8.44176C26.8823 8.53574 26.9103 8.64193 26.9103 8.74996C26.9103 8.858 26.8823 8.96419 26.829 9.05817C26.7757 9.15215 26.699 9.23072 26.6063 9.28621L15.0001 16.25L3.39381 9.28621C3.30112 9.23072 3.22439 9.15215 3.17112 9.05817C3.11785 8.96419 3.08984 8.858 3.08984 8.74996C3.08984 8.64193 3.11785 8.53574 3.17112 8.44176C3.22439 8.34778 3.30112 8.26921 3.39381 8.21372L14.3563 1.63621C14.5507 1.51941 14.7733 1.4577 15.0001 1.4577C15.2269 1.4577 15.4494 1.51941 15.6438 1.63621H15.6426ZM15.0001 4.16496L7.35881 8.74996L15.0001 13.335L22.6413 8.74996L15.0001 4.16496Z" fill="#0F1A0D"/>
</svg>
