<svg width="60" height="60" viewBox="0 0 60 60" fill="none" xmlns="http://www.w3.org/2000/svg">
<path d="M23.5 40H7.5C6.17392 40 4.90215 39.4732 3.96447 38.5355C3.02679 37.5979 2.5 36.3261 2.5 35V29.74C2.49933 29.0866 2.62673 28.4394 2.875 27.835L10.615 9.05C10.8032 8.59188 11.1232 8.19999 11.5345 7.92403C11.9458 7.64807 12.4297 7.50049 12.925 7.5H55C55.6631 7.5 56.2989 7.76339 56.7678 8.23223C57.2366 8.70107 57.5 9.33696 57.5 10V35C57.5 35.663 57.2366 36.2989 56.7678 36.7678C56.2989 37.2366 55.6631 37.5 55 37.5H46.295C45.8948 37.4999 45.5004 37.5959 45.1449 37.7799C44.7895 37.9639 44.4834 38.2306 44.2525 38.5575L30.62 57.8725C30.4477 58.1167 30.1935 58.2911 29.9037 58.364C29.6138 58.437 29.3074 58.4036 29.04 58.27L24.505 56C23.2287 55.3621 22.2092 54.3067 21.6157 53.0092C21.0222 51.7117 20.8905 50.2502 21.2425 48.8675L23.5 40ZM42.5 33.53V12.5H14.6L7.5 29.74V35H23.5C24.2615 35.0001 25.0129 35.1742 25.6969 35.5089C26.3809 35.8436 26.9795 36.3301 27.4468 36.9313C27.9142 37.5325 28.2381 38.2325 28.3937 38.9779C28.5494 39.7234 28.5327 40.4945 28.345 41.2325L26.0875 50.1025C26.0169 50.3792 26.0431 50.6717 26.1618 50.9314C26.2805 51.1911 26.4845 51.4024 26.74 51.53L28.3925 52.355L40.1675 35.675C40.7925 34.79 41.5925 34.065 42.5 33.53ZM47.5 32.5H52.5V12.5H47.5V32.5Z" fill="#104F1E"/>
</svg>
