<svg width="30" height="30" viewBox="0 0 30 30" fill="none" xmlns="http://www.w3.org/2000/svg">
<path d="M2.5 11.25H6.25V26.25H2.5C2.16848 26.25 1.85054 26.1183 1.61612 25.8839C1.3817 25.6495 1.25 25.3315 1.25 25V12.5C1.25 12.1685 1.3817 11.8506 1.61612 11.6161C1.85054 11.3817 2.16848 11.25 2.5 11.25ZM9.11625 9.63377L17.1163 1.63377C17.2226 1.52713 17.3638 1.46248 17.514 1.45168C17.6642 1.44089 17.8133 1.48468 17.9338 1.57502L19 2.37502C19.2961 2.59732 19.5198 2.90233 19.6428 3.25159C19.7658 3.60084 19.7827 3.9787 19.6913 4.33752L18.25 10H26.25C26.913 10 27.5489 10.2634 28.0178 10.7323C28.4866 11.2011 28.75 11.837 28.75 12.5V15.13C28.7503 15.4567 28.6866 15.7803 28.5625 16.0825L24.6938 25.4763C24.5994 25.7053 24.4391 25.9011 24.2332 26.0389C24.0274 26.1766 23.7852 26.2501 23.5375 26.25H10C9.66848 26.25 9.35054 26.1183 9.11612 25.8839C8.8817 25.6495 8.75 25.3315 8.75 25V10.5175C8.75007 10.186 8.88181 9.86813 9.11625 9.63377Z" fill="#0F1A0D"/>
</svg>
