<svg width="30" height="30" viewBox="0 0 30 30" fill="none" xmlns="http://www.w3.org/2000/svg">
<path d="M11.75 20H3.75C3.08696 20 2.45108 19.7366 1.98223 19.2678C1.51339 18.7989 1.25 18.163 1.25 17.5V14.87C1.24966 14.5433 1.31337 14.2197 1.4375 13.9175L5.3075 4.525C5.4016 4.29594 5.56162 4.09999 5.76725 3.96202C5.97289 3.82404 6.21487 3.75024 6.4625 3.75H27.5C27.8315 3.75 28.1495 3.8817 28.3839 4.11612C28.6183 4.35054 28.75 4.66848 28.75 5V17.5C28.75 17.8315 28.6183 18.1495 28.3839 18.3839C28.1495 18.6183 27.8315 18.75 27.5 18.75H23.1475C22.9474 18.75 22.7502 18.7979 22.5725 18.89C22.3947 18.982 22.2417 19.1153 22.1263 19.2788L15.31 28.9363C15.2238 29.0584 15.0968 29.1456 14.9518 29.182C14.8069 29.2185 14.6537 29.2018 14.52 29.135L12.2525 28C11.6144 27.681 11.1046 27.1534 10.8078 26.5046C10.5111 25.8559 10.4452 25.1251 10.6213 24.4338L11.75 20ZM21.25 16.765V6.25H7.3L3.75 14.87V17.5H11.75C12.1308 17.5001 12.5065 17.5871 12.8485 17.7544C13.1905 17.9218 13.4897 18.165 13.7234 18.4656C13.9571 18.7662 14.119 19.1163 14.1969 19.489C14.2747 19.8617 14.2664 20.2472 14.1725 20.6163L13.0438 25.0513C13.0084 25.1896 13.0215 25.3359 13.0809 25.4657C13.1402 25.5956 13.2423 25.7012 13.37 25.765L14.1963 26.1775L20.0838 17.8375C20.3963 17.395 20.7963 17.0325 21.25 16.765ZM23.75 16.25H26.25V6.25H23.75V16.25Z" fill="#0F1A0D"/>
</svg>
