<svg width="60" height="60" viewBox="0 0 60 60" fill="none" xmlns="http://www.w3.org/2000/svg">
<path d="M5 22.4998H12.5V52.4998H5C4.33696 52.4998 3.70107 52.2364 3.23223 51.7676C2.76339 51.2987 2.5 50.6628 2.5 49.9998V24.9998C2.5 24.3367 2.76339 23.7009 3.23223 23.232C3.70107 22.7632 4.33696 22.4998 5 22.4998V22.4998ZM18.2325 19.2673L34.2325 3.26729C34.4452 3.05403 34.7277 2.92471 35.0281 2.90312C35.3284 2.88153 35.6265 2.96912 35.8675 3.14979L38 4.74979C38.5923 5.1944 39.0396 5.80442 39.2856 6.50293C39.5317 7.20144 39.5654 7.95715 39.3825 8.67479L36.5 19.9998H52.5C53.8261 19.9998 55.0979 20.5266 56.0355 21.4643C56.9732 22.4019 57.5 23.6737 57.5 24.9998V30.2598C57.5007 30.9132 57.3733 31.5604 57.125 32.1648L49.3875 50.9523C49.1988 51.4103 48.8782 51.802 48.4664 52.0775C48.0547 52.353 47.5704 52.5 47.075 52.4998H20C19.337 52.4998 18.7011 52.2364 18.2322 51.7676C17.7634 51.2987 17.5 50.6628 17.5 49.9998V21.0348C17.5001 20.3718 17.7636 19.736 18.2325 19.2673Z" fill="#104F1E"/>
</svg>
