<svg width="30" height="30" viewBox="0 0 30 30" fill="none" xmlns="http://www.w3.org/2000/svg">
<path d="M1.25 27.5C1.25 24.8479 2.30357 22.3043 4.17893 20.429C6.0543 18.5536 8.59784 17.5 11.25 17.5C13.9022 17.5 16.4457 18.5536 18.3211 20.429C20.1964 22.3043 21.25 24.8479 21.25 27.5H18.75C18.75 25.5109 17.9598 23.6033 16.5533 22.1967C15.1468 20.7902 13.2391 20 11.25 20C9.26088 20 7.35322 20.7902 5.9467 22.1967C4.54018 23.6033 3.75 25.5109 3.75 27.5H1.25ZM11.25 16.25C7.10625 16.25 3.75 12.8938 3.75 8.75004C3.75 4.60629 7.10625 1.25004 11.25 1.25004C15.3938 1.25004 18.75 4.60629 18.75 8.75004C18.75 12.8938 15.3938 16.25 11.25 16.25ZM11.25 13.75C14.0125 13.75 16.25 11.5125 16.25 8.75004C16.25 5.98754 14.0125 3.75004 11.25 3.75004C8.4875 3.75004 6.25 5.98754 6.25 8.75004C6.25 11.5125 8.4875 13.75 11.25 13.75ZM26.935 0.980042C28.1328 3.39483 28.754 6.05453 28.75 8.75004C28.75 11.5413 28.0963 14.18 26.935 16.52L24.8787 15.025C25.7853 13.0575 26.2532 10.9164 26.25 8.75004C26.25 6.51004 25.7587 4.38379 24.8787 2.47504L26.935 0.980042ZM22.8075 3.98004C23.4318 5.49274 23.7521 7.11358 23.75 8.75004C23.7521 10.3865 23.4318 12.0073 22.8075 13.52L20.7113 11.995C21.0689 10.9506 21.251 9.85405 21.25 8.75004C21.2514 7.6461 21.0698 6.54957 20.7125 5.50504L22.8075 3.98004Z" fill="#0F1A0D"/>
</svg>
